<?xml version="1.0" encoding="utf-8"?>
<!-- Generator: Adobe Illustrator 22.0.1, SVG Export Plug-In . SVG Version: 6.00 Build 0)  -->
<svg version="1.1" xmlns="http://www.w3.org/2000/svg" xmlns:xlink="http://www.w3.org/1999/xlink" x="0px" y="0px"
	 viewBox="0 0 2272 1872" style="enable-background:new 0 0 2272 1872;" xml:space="preserve">
<style type="text/css">
	.st0{fill:#082133;}
	.st1{fill:#003368;}
	.st2{fill:#0B65A8;}
	.st3{fill:#394A66;}
	.st4{fill:#7599D3;}
	.st5{fill:#F48E69;}
	.st6{fill:#4C3129;}
	.st7{fill:#FFE100;}
	.st8{fill:#440136;}
	.st9{fill:#FEC000;}
	.st10{fill:#4DA8BB;}
	.st11{fill:#FFC39A;}
	.st12{fill:#FF777F;}
	.st13{fill:#B9F4FF;}
	.st14{fill:#8CBDC4;}
	.st15{fill:#2C3E50;}
	.st16{fill:#F39C26;}
	.st17{fill:#754026;}
	.st18{fill:#FFFFFF;}
	.st19{fill:#0D64B2;}
	.st20{fill:#FFD6CA;}
</style>
<g id="Background">
	<rect class="st0" width="2272" height="1872"/>
	<g id="Layer_1_1_">
	</g>
	<g id="Layer_2">
	</g>
	<g id="Layer_1_2_">
	</g>
	<g id="Layer_2_1_">
	</g>
</g>
<g id="object">
	<g>
		<path class="st1" d="M273.3,1523.7c-34.7-69.7-39.5-153.7-13.1-227C293,1206,369.2,1136,402.1,1045.3
			c23.2-64.1,22.9-136.4-0.8-200.2C378.5,784,336,732.4,306.4,674.3c-28.9-56.7-45.3-121.3-37-184.5c8.3-63.1,43.5-124.2,99.2-155.2
			c77.9-43.3,175.4-21.1,258.2,11.7c48.2,19.1,96.6,41.6,148.3,43.3c87.9,2.8,164.8-54,236.8-104.5s157.8-99.3,243.2-78.1
			c62.6,15.5,110.1,65.6,167.7,94.5c31.9,16,67,25.5,102.6,27.6c58.7,3.6,116.5-12.4,174.1-24.3c57.6-11.9,118.7-19.5,174.2,0.1
			c55.4,19.6,102.6,73.9,95.7,132.3c-3.1,26.4-16.4,50.3-27.2,74.6c-41.6,93.9-46.8,203.4-14.1,300.8c19.6,58.6,52.7,115,51.2,176.7
			c-1.7,68.6-45.9,129.3-55.4,197.3c-9.7,69.5,17.7,138,37.4,205.4c19.7,67.4,30.7,144.9-7.4,203.8
			c-35.5,54.9-103.6,78.2-167.8,90.9c-268.9,53.3-546-11.9-820.2-9.5c-147.6,1.3-294.6,22.2-442.3,16.4
			c-48.1-1.9-116.7,2.5-156.2-30.2C329.3,1632.3,294.7,1566.9,273.3,1523.7z"/>
		<path class="st2" d="M2175.2,571h-541c22.2,0,24.1-7.9,43.5-18.7c4.1-2.3,8.2-4.9,10.9-8.6c3.8-5.3,4.5-12.1,6.1-18.3
			c5.2-20.6,22.3-37.7,42.9-42.9c20.6-5.2,43.8,1.6,58.2,17.2c-7.8-26.5,14.3-52.7,34.2-71.9c19.8-19.2,48.6-27.8,76.1-25.8
			c9.7,0.7,19.6,2.8,27.7,8.3c7.5,5.1,12.8,12.7,17.3,20.5c12.8,22.1,20.4,47.2,22,72.8c4.6-9.1,14.6-8.1,23.2-2.8s13.5,15,18,24.1
			c3.3-10,12.8-17.6,23.3-18.8c10.5-1.2,21.4,4.2,26.8,13.2c4.2,6.9,5.1,15.3,6,23.3C2099.5,561.2,2140.5,569.6,2175.2,571z"/>
		<path class="st2" d="M636.8,571h-541c22.2,0,24.1-7.9,43.5-18.7c4.1-2.3,8.2-4.9,10.9-8.6c3.8-5.3,4.5-12.1,6.1-18.3
			c5.2-20.6,22.3-37.7,42.9-42.9s43.8,1.6,58.2,17.2c-7.8-26.5,14.3-52.7,34.2-71.9c19.8-19.2,48.6-27.8,76.1-25.8
			c9.7,0.7,19.6,2.8,27.7,8.3c7.5,5.1,12.8,12.7,17.3,20.5c12.8,22.1,20.4,47.2,22,72.8c4.6-9.1,14.6-8.1,23.2-2.8s13.5,15,18,24.1
			c3.3-10,12.8-17.6,23.3-18.8c10.5-1.2,21.4,4.2,26.8,13.2c4.2,6.9,5.1,15.3,6,23.3C561.1,561.2,602.1,569.6,636.8,571z"/>
		<path class="st2" d="M851.3,893.4h-541c22.2,0,24.1-7.9,43.5-18.7c4.1-2.3,8.2-4.9,10.9-8.6c3.8-5.3,4.5-12.1,6.1-18.3
			c5.2-20.6,22.3-37.7,42.9-42.9c20.6-5.2,43.8,1.6,58.2,17.2c-7.8-26.5,14.3-52.7,34.2-71.9s48.6-27.8,76.1-25.8
			c9.7,0.7,19.6,2.8,27.7,8.3c7.5,5.1,12.8,12.7,17.3,20.5c12.8,22.1,20.4,47.2,22,72.8c4.6-9.1,14.6-8.1,23.2-2.8
			c8.6,5.4,13.5,15,18,24.1c3.3-10,12.8-17.6,23.3-18.8c10.5-1.2,21.4,4.2,26.8,13.2c4.2,6.9,5.1,15.3,6,23.3
			C775.6,883.6,816.7,892,851.3,893.4z"/>
		<path class="st2" d="M1534.1,933.2h-382.6c15.7,0,17.1-5.6,30.8-13.3c2.9-1.6,5.8-3.4,7.7-6.1c2.7-3.7,3.2-8.5,4.3-13
			c3.7-14.6,15.8-26.7,30.3-30.4c14.6-3.7,31,1.1,41.2,12.2c-5.5-18.7,10.1-37.3,24.2-50.9s34.4-19.7,53.8-18.2
			c6.9,0.5,13.9,2,19.6,5.9c5.3,3.6,9,9,12.2,14.5c9,15.7,14.4,33.4,15.6,51.5c3.2-6.4,10.3-5.8,16.4-1.9c6.1,3.8,9.5,10.6,12.7,17
			c2.4-7.1,9.1-12.5,16.4-13.3c7.4-0.8,15.1,3,19,9.4c3,4.9,3.6,10.8,4.2,16.5C1480.6,926.2,1509.6,932.2,1534.1,933.2z"/>
		<path class="st2" d="M1898.2,938.8c-69.8,7-136.2,43.6-179.5,98.9c-40.6-28.7-87.5-52.9-137.3-51.6
			c-49.7,1.3-101.3,35.3-107.8,84.6c-40.6-38.7-105-50.1-156.3-27.6c-51.4,22.5-86.7,77.6-85.7,133.7
			c-31.6-19.6-73.9-20.7-106.4-2.5c-32.5,18.1-53.9,54.6-53.9,91.8c-21-27.1-30.7-61.6-51.3-89s-60.6-46.7-89-27.4
			c-4.8,3.3-9.2,7.6-14.9,8.4c-9.9,1.5-17.6-7.7-24.4-15.1c-39.4-43.1-115.4-45.1-156.9-4c-18-25.6-36.7-51.8-63.1-68.6
			c-26.4-16.8-62.7-21.9-88.4-4.1c-28.8-76.3-89.1-144.8-167.6-165.4c7.5,48.3,3,98.4-13.7,144.4C369.2,1136,293,1206,260.2,1296.7
			c-26.4,73.3-21.6,157.2,13.1,227c21.5,43.2,56,108.6,94,140.1c39.5,32.7,108.1,28.3,156.2,30.2c147.7,5.8,294.7-15.1,442.3-16.4
			c274.2-2.4,551.3,62.8,820.2,9.5c64.2-12.7,132.3-36,167.8-90.9c38.1-59,27.1-136.5,7.4-203.8c-19.7-67.4-47.1-135.9-37.4-205.4
			c9.5-67.9,53.7-128.7,55.4-197.3c0.4-15.9-1.5-31.5-4.9-46.9C1949.3,937.7,1923.6,936.3,1898.2,938.8z"/>
		<g>
			<path class="st3" d="M181,1469.7c-18.6-38.2-35.2-77.9-42.1-119.8c-6.9-41.9-3.4-86.6,16.5-124.1c4.1-7.8,10.1-16,18.9-17.1
				c11.5-1.4,20.2,9.9,26,19.9c41.4,71.1,74.5,147,98.5,225.7c-7.8-60.3-12.1-121-12.9-181.8c-0.7-55.8,4-117.4,43.2-157.2
				c12.8-13,31.3-23.2,48.8-18.1c22.2,6.5,30.8,32.8,35.8,55.3c22.3,101.4,38.6,204.2,48.8,307.5c28.8-88.5,63-184.1,142-233.3
				c7.5-4.6,16.1-8.9,24.7-6.9c14.2,3.3,18.9,20.9,20.6,35.3c9.3,79.4,7,160.2-6.9,238.9c15.2-32.4,33.1-67.6,66.2-81.4
				c4.8-2,10.2-3.5,15.2-2c10.2,3,13.1,15.8,14,26.4c3.9,43,4.7,86.3,2.7,129.5c-0.6,12.9-1.6,26.1-6.9,37.9
				c-10.5,23.3-35.5,36.3-59.5,45.2c-104,38.4-219.5,33.2-328.1,22.2C261,1663.2,214.5,1538.5,181,1469.7z"/>
			<g>
				<path class="st4" d="M333.7,1634.9c-3.7-12.3-9.3-24-14.3-35.7c-1.3-3.1-2.6-6.1-4-9.2c0.4-0.9,0.4-2-0.1-3.1
					c-0.7-1.4-1.8-2.8-3-4c-2.6-6-5.2-11.9-7.7-17.9c-4.1-9.5-8.1-19.1-12.2-28.7c0.2-0.7,0.4-1.5,0.5-2.2c0.3-2.3,0.6-4.6,0.8-6.9
					c0.4-5.3,0.8-10.7,1.4-16c1.1-10.5,3.7-21.3,2.4-31.8c-0.3-2.5-3.9-4.2-5.3-1.4c-4.8,9.6-5.3,21-6,31.6
					c-0.2,3.5-0.4,7.1-0.5,10.6c-3.6-8.6-7.2-17.3-10.7-25.9c-13.4-32.5-26.3-65.2-39-97.9c0.1-0.1,0.2-0.2,0.3-0.3
					c2.7-5,2.3-11.6,2.6-17.2c0.3-6.6,0.4-13.2,0.6-19.8c0.4-12.8,1.3-26-0.4-38.7c-0.4-3.2-6-3.2-6.4,0
					c-1.8,12.7-1.1,25.9-1.1,38.7c0,6.3-0.1,12.6,0,18.9c0,2.1-0.1,4.3-0.1,6.6c-4.2-10.8-8.3-21.6-12.5-32.4
					c-10.4-27-20.7-53.9-30.6-81.1c-0.8-2.3-4.5-1.4-3.7,1c18.6,57.3,38.6,114.1,60,170.4c-3.7-3.6-7.6-7.1-11.5-10.5
					c-11.5-10.1-23.4-19.8-34-31c-3.1-3.3-7.9,1.6-4.9,4.9c10,11.3,21.3,21.3,32.3,31.6c5.4,5.1,10.7,10.2,15.8,15.6
					c2.5,2.7,5,5.5,7.3,8.3c1.3,1.5,2.4,3.1,3.9,4.1c12.2,31.5,24.9,62.9,37.9,94.1c1,2.4,2,4.8,3,7.2c-1.3-1.2-2.7-2.4-4-3.6
					c-8.9-7.7-18-15.2-27.3-22.4c-2.7-2.1-6.4,1.5-3.8,3.8c9,7.5,17.9,15.2,26.4,23.3c4.2,3.9,8.3,7.9,12.4,12
					c1.1,1.1,2.3,2.4,3.4,3.7c2.1,4.9,4.2,9.8,6.3,14.8c5.8,13.4,11.2,27.3,18.8,39.8C328.7,1641.7,335,1639.3,333.7,1634.9z"/>
				<path class="st4" d="M426.7,1646.7c-5.5-31.6-10.7-63.2-15.6-94.9c1-0.8,1.5-2.1,0.9-3.5c-0.8-1.9-1.5-3.7-2.3-5.5
					c-10.7-69.2-20-138.5-27.9-208.1c-3.3-29.1-6.3-58.4-11.3-87.3c-0.5-3-5.2-2.2-5.2,0.7c0.3,26.3,2.8,52.7,5.8,78.9
					c2.9,26.1,6.2,52.2,9.8,78.2c5.3,38,11.1,75.9,17.5,113.7c-6.3-12.4-13-24.6-19.9-36.7c-12.3-21.7-25.4-42.9-39.2-63.7
					c-1.7-2.5-5.7-0.2-4.1,2.4c13.1,20.9,25.5,42.3,37,64.1c10.8,20.5,20.6,41.5,31.2,62.2c0.8,4.3,1.5,8.5,2.3,12.8
					c5.3,29.4,11.1,58.6,17.2,87.8C423.4,1650.2,427.1,1649.1,426.7,1646.7z"/>
				<path class="st4" d="M622.8,1401.7c-4.7,1.3-8.9,4.4-13,6.9c-4.4,2.6-8.8,5.2-13.2,7.9c-7.3,4.5-14.5,9.2-21.8,13.8
					c3.2-12.6,6.6-25.1,10.2-37.6c3.1-10.6,6.4-21.1,9.7-31.7c3.3-10.5,7.3-20.9,8.9-31.8c0.7-4.5-5.1-7.7-7.8-3.3
					c-5.1,8.5-8.2,17.8-11.3,27.2c-3.2,9.4-6.1,18.9-8.8,28.5c-1.6,5.6-3.2,11.3-4.7,16.9c-1.7-6.2-3.6-12.4-5.2-18.5
					c-2.8-10.7-5.6-21.5-8.5-32.2c-0.7-2.8-4.9-1.6-4.3,1.2c2.3,10.9,4.6,21.8,6.9,32.6c2.3,10.6,3.7,22,7,32.3
					c-2.1,8.2-4,16.4-5.9,24.6c-8.6,38.2-14.7,76.8-18.6,115.7c-2.2,22.2-3.6,44.5-4.6,66.9c-0.2,5.5,8.4,5.5,8.6,0
					c2.6-61.6,11.8-123.2,26.4-183.3c0.1,0,0.2-0.1,0.4-0.1c9.1-4.6,18.4-9.1,27.5-13.9c4.3-2.3,8.5-4.6,12.8-6.9
					c4.5-2.4,9.6-4.5,13.3-8.1C629.8,1405.7,626.7,1400.6,622.8,1401.7z"/>
				<path class="st4" d="M691.7,1536.7c-14.8,7.6-29.8,14.9-44.5,22.7c13.6-24.1,27.3-48.4,38-73.9c1.8-4.4-5.1-6.8-7.4-3.1
					c-15.8,24.5-28.4,51.1-41.1,77.3c-6.3,13-12.5,26.1-18.6,39.3c-6.1,13.4-13.6,26.2-20.5,39.2c-1.5,2.9,2.9,5.5,4.4,2.6
					c6.8-13,13.2-26.5,20.7-39.1c6.1-10.2,12.1-20.5,18-30.8c1.3,0.8,2.9,1,4.6,0.1c17-8.7,33.6-18.3,50.4-27.5
					C700.2,1541.1,696.2,1534.4,691.7,1536.7z"/>
			</g>
		</g>
		<g>
			<path class="st3" d="M2137.7,1469.7c18.6-38.2,35.2-77.9,42.1-119.8c6.9-41.9,3.4-86.6-16.5-124.1c-4.1-7.8-10.1-16-18.9-17.1
				c-11.5-1.4-20.2,9.9-26,19.9c-41.4,71.1-74.5,147-98.5,225.7c7.8-60.3,12.1-121,12.9-181.8c0.7-55.8-4-117.4-43.2-157.2
				c-12.8-13-31.3-23.2-48.8-18.1c-22.2,6.5-30.8,32.8-35.8,55.3c-22.3,101.4-38.6,204.2-48.8,307.5c-28.8-88.5-63-184.1-142-233.3
				c-7.5-4.6-16.1-8.9-24.7-6.9c-14.2,3.3-18.9,20.9-20.6,35.3c-9.3,79.4-7,160.2,6.9,238.9c-15.2-32.4-33.1-67.6-66.2-81.4
				c-4.8-2-10.2-3.5-15.2-2c-10.2,3-13.1,15.8-14,26.4c-3.9,43-4.7,86.3-2.7,129.5c0.6,12.9,1.6,26.1,6.9,37.9
				c10.5,23.3,35.5,36.3,59.5,45.2c104,38.4,219.5,33.2,328.1,22.2C2057.8,1663.2,2104.2,1538.5,2137.7,1469.7z"/>
			<g>
				<path class="st4" d="M1985.1,1634.9c3.7-12.3,9.3-24,14.3-35.7c1.3-3.1,2.6-6.1,4-9.2c-0.4-0.9-0.4-2,0.1-3.1
					c0.7-1.4,1.8-2.8,3-4c2.6-6,5.2-11.9,7.7-17.9c4.1-9.5,8.1-19.1,12.2-28.7c-0.2-0.7-0.4-1.5-0.5-2.2c-0.3-2.3-0.6-4.6-0.8-6.9
					c-0.4-5.3-0.8-10.7-1.4-16c-1.1-10.5-3.7-21.3-2.4-31.8c0.3-2.5,3.9-4.2,5.3-1.4c4.8,9.6,5.3,21,6,31.6
					c0.2,3.5,0.4,7.1,0.5,10.6c3.6-8.6,7.2-17.3,10.7-25.9c13.4-32.5,26.3-65.2,39-97.9c-0.1-0.1-0.2-0.2-0.3-0.3
					c-2.7-5-2.3-11.6-2.6-17.2c-0.3-6.6-0.4-13.2-0.6-19.8c-0.4-12.8-1.3-26,0.4-38.7c0.4-3.2,6-3.2,6.4,0
					c1.8,12.7,1.1,25.9,1.1,38.7c0,6.3,0.1,12.6,0,18.9c0,2.1,0.1,4.3,0.1,6.6c4.2-10.8,8.3-21.6,12.5-32.4
					c10.4-27,20.7-53.9,30.6-81.1c0.8-2.3,4.5-1.4,3.7,1c-18.6,57.3-38.6,114.1-60,170.4c3.7-3.6,7.6-7.1,11.5-10.5
					c11.5-10.1,23.4-19.8,34-31c3.1-3.3,7.9,1.6,4.9,4.9c-10,11.3-21.3,21.3-32.3,31.6c-5.4,5.1-10.7,10.2-15.8,15.6
					c-2.5,2.7-5,5.5-7.3,8.3c-1.3,1.5-2.4,3.1-3.9,4.1c-12.2,31.5-24.9,62.9-37.9,94.1c-1,2.4-2,4.8-3,7.2c1.3-1.2,2.7-2.4,4-3.6
					c8.9-7.7,18-15.2,27.3-22.4c2.7-2.1,6.4,1.5,3.8,3.8c-9,7.5-17.9,15.2-26.4,23.3c-4.2,3.9-8.3,7.9-12.4,12
					c-1.1,1.1-2.3,2.4-3.4,3.7c-2.1,4.9-4.2,9.8-6.3,14.8c-5.8,13.4-11.2,27.3-18.8,39.8C1990.1,1641.7,1983.7,1639.3,1985.1,1634.9
					z"/>
				<path class="st4" d="M1892.1,1646.7c5.5-31.6,10.7-63.2,15.6-94.9c-1-0.8-1.5-2.1-0.9-3.5c0.8-1.9,1.5-3.7,2.3-5.5
					c10.7-69.2,20-138.5,27.9-208.1c3.3-29.1,6.3-58.4,11.3-87.3c0.5-3,5.2-2.2,5.2,0.7c-0.3,26.3-2.8,52.7-5.8,78.9
					c-2.9,26.1-6.2,52.2-9.8,78.2c-5.3,38-11.1,75.9-17.5,113.7c6.3-12.4,13-24.6,19.9-36.7c12.3-21.7,25.4-42.9,39.2-63.7
					c1.7-2.5,5.7-0.2,4.1,2.4c-13.1,20.9-25.5,42.3-37,64.1c-10.8,20.5-20.6,41.5-31.2,62.2c-0.8,4.3-1.5,8.5-2.3,12.8
					c-5.3,29.4-11.1,58.6-17.2,87.8C1895.4,1650.2,1891.7,1649.1,1892.1,1646.7z"/>
				<path class="st4" d="M1696,1401.7c4.7,1.3,8.9,4.4,13,6.9c4.4,2.6,8.8,5.2,13.2,7.9c7.3,4.5,14.5,9.2,21.8,13.8
					c-3.2-12.6-6.6-25.1-10.2-37.6c-3.1-10.6-6.4-21.1-9.7-31.7c-3.3-10.5-7.3-20.9-8.9-31.8c-0.7-4.5,5.1-7.7,7.8-3.3
					c5.1,8.5,8.2,17.8,11.3,27.2c3.2,9.4,6.1,18.9,8.8,28.5c1.6,5.6,3.2,11.3,4.7,16.9c1.7-6.2,3.6-12.4,5.2-18.5
					c2.8-10.7,5.6-21.5,8.5-32.2c0.7-2.8,4.9-1.6,4.3,1.2c-2.3,10.9-4.6,21.8-6.9,32.6c-2.3,10.6-3.7,22-7,32.3
					c2.1,8.2,4,16.4,5.9,24.6c8.6,38.2,14.7,76.8,18.6,115.7c2.2,22.2,3.6,44.5,4.6,66.9c0.2,5.5-8.4,5.5-8.6,0
					c-2.6-61.6-11.8-123.2-26.4-183.3c-0.1,0-0.2-0.1-0.4-0.1c-9.1-4.6-18.4-9.1-27.5-13.9c-4.3-2.3-8.5-4.6-12.8-6.9
					c-4.5-2.4-9.6-4.5-13.3-8.1C1688.9,1405.7,1692,1400.6,1696,1401.7z"/>
				<path class="st4" d="M1627.1,1536.7c14.8,7.6,29.8,14.9,44.5,22.7c-13.6-24.1-27.3-48.4-38-73.9c-1.8-4.4,5.1-6.8,7.4-3.1
					c15.8,24.5,28.4,51.1,41.1,77.3c6.3,13,12.5,26.1,18.6,39.3c6.1,13.4,13.6,26.2,20.5,39.2c1.5,2.9-2.9,5.5-4.4,2.6
					c-6.8-13-13.2-26.5-20.7-39.1c-6.1-10.2-12.1-20.5-18-30.8c-1.3,0.8-2.9,1-4.6,0.1c-17-8.7-33.6-18.3-50.4-27.5
					C1618.6,1541.1,1622.5,1534.4,1627.1,1536.7z"/>
			</g>
		</g>
		<g>
			<path class="st3" d="M1337.1,1469.7c18.6-38.2,35.2-77.9,42.1-119.8c6.9-41.9,3.4-86.6-16.5-124.1c-4.1-7.8-10.1-16-18.9-17.1
				c-11.5-1.4-20.2,9.9-26,19.9c-41.4,71.1-74.5,147-98.5,225.7c7.8-60.3,12.1-121,12.9-181.8c0.7-55.8-4-117.4-43.2-157.2
				c-12.8-13-31.3-23.2-48.8-18.1c-22.2,6.5-30.8,32.8-35.8,55.3c-22.3,101.4-38.6,204.2-48.8,307.5c-28.8-88.5-63-184.1-142-233.3
				c-7.5-4.6-16.1-8.9-24.7-6.9c-14.2,3.3-18.9,20.9-20.6,35.3c-9.3,79.4-7,160.2,6.9,238.9c-15.2-32.4-33.1-67.6-66.2-81.4
				c-4.8-2-10.2-3.5-15.2-2c-10.2,3-13.1,15.8-14,26.4c-3.9,43-4.7,86.3-2.7,129.5c0.6,12.9,1.6,26.1,6.9,37.9
				c10.5,23.3,35.5,36.3,59.5,45.2c104,38.4,219.5,33.2,328.1,22.2C1257.1,1663.2,1303.6,1538.5,1337.1,1469.7z"/>
			<g>
				<path class="st4" d="M1184.4,1634.9c3.7-12.3,9.3-24,14.3-35.7c1.3-3.1,2.6-6.1,4-9.2c-0.4-0.9-0.4-2,0.1-3.1
					c0.7-1.4,1.8-2.8,3-4c2.6-6,5.2-11.9,7.7-17.9c4.1-9.5,8.1-19.1,12.2-28.7c-0.2-0.7-0.4-1.5-0.5-2.2c-0.3-2.3-0.6-4.6-0.8-6.9
					c-0.4-5.3-0.8-10.7-1.4-16c-1.1-10.5-3.7-21.3-2.4-31.8c0.3-2.5,3.9-4.2,5.3-1.4c4.8,9.6,5.3,21,6,31.6
					c0.2,3.5,0.4,7.1,0.5,10.6c3.6-8.6,7.2-17.3,10.7-25.9c13.4-32.5,26.3-65.2,39-97.9c-0.1-0.1-0.2-0.2-0.3-0.3
					c-2.7-5-2.3-11.6-2.6-17.2c-0.3-6.6-0.4-13.2-0.6-19.8c-0.4-12.8-1.3-26,0.4-38.7c0.4-3.2,6-3.2,6.4,0
					c1.8,12.7,1.1,25.9,1.1,38.7c0,6.3,0.1,12.6,0,18.9c0,2.1,0.1,4.3,0.1,6.6c4.2-10.8,8.3-21.6,12.5-32.4
					c10.4-27,20.7-53.9,30.6-81.1c0.8-2.3,4.5-1.4,3.7,1c-18.6,57.3-38.6,114.1-60,170.4c3.7-3.6,7.6-7.1,11.5-10.5
					c11.5-10.1,23.4-19.8,34-31c3.1-3.3,7.9,1.6,4.9,4.9c-10,11.3-21.3,21.3-32.3,31.6c-5.4,5.1-10.7,10.2-15.8,15.6
					c-2.5,2.7-5,5.5-7.3,8.3c-1.3,1.5-2.4,3.1-3.9,4.1c-12.2,31.5-24.9,62.9-37.9,94.1c-1,2.4-2,4.8-3,7.2c1.3-1.2,2.7-2.4,4-3.6
					c8.9-7.7,18-15.2,27.3-22.4c2.7-2.1,6.4,1.5,3.8,3.8c-9,7.5-17.9,15.2-26.4,23.3c-4.2,3.9-8.3,7.9-12.4,12
					c-1.1,1.1-2.3,2.4-3.4,3.7c-2.1,4.9-4.2,9.8-6.3,14.8c-5.8,13.4-11.2,27.3-18.8,39.8C1189.4,1641.7,1183.1,1639.3,1184.4,1634.9
					z"/>
				<path class="st4" d="M1091.4,1646.7c5.5-31.6,10.7-63.2,15.6-94.9c-1-0.8-1.5-2.1-0.9-3.5c0.8-1.9,1.5-3.7,2.3-5.5
					c10.7-69.2,20-138.5,27.9-208.1c3.3-29.1,6.3-58.4,11.3-87.3c0.5-3,5.2-2.2,5.2,0.7c-0.3,26.3-2.8,52.7-5.8,78.9
					c-2.9,26.1-6.2,52.2-9.8,78.2c-5.3,38-11.1,75.9-17.5,113.7c6.3-12.4,13-24.6,19.9-36.7c12.3-21.7,25.4-42.9,39.2-63.7
					c1.7-2.5,5.7-0.2,4.1,2.4c-13.1,20.9-25.5,42.3-37,64.1c-10.8,20.5-20.6,41.5-31.2,62.2c-0.8,4.3-1.5,8.5-2.3,12.8
					c-5.3,29.4-11.1,58.6-17.2,87.8C1094.7,1650.2,1091,1649.1,1091.4,1646.7z"/>
				<path class="st4" d="M895.3,1401.7c4.7,1.3,8.9,4.4,13,6.9c4.4,2.6,8.8,5.2,13.2,7.9c7.3,4.5,14.5,9.2,21.8,13.8
					c-3.2-12.6-6.6-25.1-10.2-37.6c-3.1-10.6-6.4-21.1-9.7-31.7c-3.3-10.5-7.3-20.9-8.9-31.8c-0.7-4.5,5.1-7.7,7.8-3.3
					c5.1,8.5,8.2,17.8,11.3,27.2c3.2,9.4,6.1,18.9,8.8,28.5c1.6,5.6,3.2,11.3,4.7,16.9c1.7-6.2,3.6-12.4,5.2-18.5
					c2.8-10.7,5.6-21.5,8.5-32.2c0.7-2.8,4.9-1.6,4.3,1.2c-2.3,10.9-4.6,21.8-6.9,32.6c-2.3,10.6-3.7,22-7,32.3
					c2.1,8.2,4,16.4,5.9,24.6c8.6,38.2,14.7,76.8,18.6,115.7c2.2,22.2,3.6,44.5,4.6,66.9c0.2,5.5-8.4,5.5-8.6,0
					c-2.6-61.6-11.8-123.2-26.4-183.3c-0.1,0-0.2-0.1-0.4-0.1c-9.1-4.6-18.4-9.1-27.5-13.9c-4.3-2.3-8.5-4.6-12.8-6.9
					c-4.5-2.4-9.6-4.5-13.3-8.1C888.2,1405.7,891.3,1400.6,895.3,1401.7z"/>
				<path class="st4" d="M826.4,1536.7c14.8,7.6,29.8,14.9,44.5,22.7c-13.6-24.1-27.3-48.4-38-73.9c-1.8-4.4,5.1-6.8,7.4-3.1
					c15.8,24.5,28.4,51.1,41.1,77.3c6.3,13,12.5,26.1,18.6,39.3c6.1,13.4,13.6,26.2,20.5,39.2c1.5,2.9-2.9,5.5-4.4,2.6
					c-6.8-13-13.2-26.5-20.7-39.1c-6.1-10.2-12.1-20.5-18-30.8c-1.3,0.8-2.9,1-4.6,0.1c-17-8.7-33.6-18.3-50.4-27.5
					C817.9,1541.1,821.9,1534.4,826.4,1536.7z"/>
			</g>
		</g>
		<g>
			<path class="st3" d="M1788.7,1469.7c18.6-38.2,35.2-77.9,42.1-119.8c6.9-41.9,3.4-86.6-16.5-124.1c-4.1-7.8-10.1-16-18.9-17.1
				c-11.5-1.4-20.2,9.9-26,19.9c-41.4,71.1-74.5,147-98.5,225.7c7.8-60.3,12.1-121,12.9-181.8c0.7-55.8-4-117.4-43.2-157.2
				c-12.8-13-31.3-23.2-48.8-18.1c-22.2,6.5-30.8,32.8-35.8,55.3c-22.3,101.4-38.6,204.2-48.8,307.5c-28.8-88.5-63-184.1-142-233.3
				c-7.5-4.6-16.1-8.9-24.7-6.9c-14.2,3.3-18.9,20.9-20.6,35.3c-9.3,79.4-7,160.2,6.9,238.9c-15.2-32.4-33.1-67.6-66.2-81.4
				c-4.8-2-10.2-3.5-15.2-2c-10.2,3-13.1,15.8-14,26.4c-3.9,43-4.7,86.3-2.7,129.5c0.6,12.9,1.6,26.1,6.9,37.9
				c10.5,23.3,35.5,36.3,59.5,45.2c104,38.4,219.5,33.2,328.1,22.2C1708.7,1663.2,1755.2,1538.5,1788.7,1469.7z"/>
			<g>
				<path class="st4" d="M1636,1634.9c3.7-12.3,9.3-24,14.3-35.7c1.3-3.1,2.6-6.1,4-9.2c-0.4-0.9-0.4-2,0.1-3.1c0.7-1.4,1.8-2.8,3-4
					c2.6-6,5.2-11.9,7.7-17.9c4.1-9.5,8.1-19.1,12.2-28.7c-0.2-0.7-0.4-1.5-0.5-2.2c-0.3-2.3-0.6-4.6-0.8-6.9
					c-0.4-5.3-0.8-10.7-1.4-16c-1.1-10.5-3.7-21.3-2.4-31.8c0.3-2.5,3.9-4.2,5.3-1.4c4.8,9.6,5.3,21,6,31.6
					c0.2,3.5,0.4,7.1,0.5,10.6c3.6-8.6,7.2-17.3,10.7-25.9c13.4-32.5,26.3-65.2,39-97.9c-0.1-0.1-0.2-0.2-0.3-0.3
					c-2.7-5-2.3-11.6-2.6-17.2c-0.3-6.6-0.4-13.2-0.6-19.8c-0.4-12.8-1.3-26,0.4-38.7c0.4-3.2,6-3.2,6.4,0
					c1.8,12.7,1.1,25.9,1.1,38.7c0,6.3,0.1,12.6,0,18.9c0,2.1,0.1,4.3,0.1,6.6c4.2-10.8,8.3-21.6,12.5-32.4
					c10.4-27,20.7-53.9,30.6-81.1c0.8-2.3,4.5-1.4,3.7,1c-18.6,57.3-38.6,114.1-60,170.4c3.7-3.6,7.6-7.1,11.5-10.5
					c11.5-10.1,23.4-19.8,34-31c3.1-3.3,7.9,1.6,4.9,4.9c-10,11.3-21.3,21.3-32.3,31.6c-5.4,5.1-10.7,10.2-15.8,15.6
					c-2.5,2.7-5,5.5-7.3,8.3c-1.3,1.5-2.4,3.1-3.9,4.1c-12.2,31.5-24.9,62.9-37.9,94.1c-1,2.4-2,4.8-3,7.2c1.3-1.2,2.7-2.4,4-3.6
					c8.9-7.7,18-15.2,27.3-22.4c2.7-2.1,6.4,1.5,3.8,3.8c-9,7.5-17.9,15.2-26.4,23.3c-4.2,3.9-8.3,7.9-12.4,12
					c-1.1,1.1-2.3,2.4-3.4,3.7c-2.1,4.9-4.2,9.8-6.3,14.8c-5.8,13.4-11.2,27.3-18.8,39.8C1641,1641.7,1634.7,1639.3,1636,1634.9z"/>
				<path class="st4" d="M1543,1646.7c5.5-31.6,10.7-63.2,15.6-94.9c-1-0.8-1.5-2.1-0.9-3.5c0.8-1.9,1.5-3.7,2.3-5.5
					c10.7-69.2,20-138.5,27.9-208.1c3.3-29.1,6.3-58.4,11.3-87.3c0.5-3,5.2-2.2,5.2,0.7c-0.3,26.3-2.8,52.7-5.8,78.9
					c-2.9,26.1-6.2,52.2-9.8,78.2c-5.3,38-11.1,75.9-17.5,113.7c6.3-12.4,13-24.6,19.9-36.7c12.3-21.7,25.4-42.9,39.2-63.7
					c1.7-2.5,5.7-0.2,4.1,2.4c-13.1,20.9-25.5,42.3-37,64.1c-10.8,20.5-20.6,41.5-31.2,62.2c-0.8,4.3-1.5,8.5-2.3,12.8
					c-5.3,29.4-11.1,58.6-17.2,87.8C1546.3,1650.2,1542.6,1649.1,1543,1646.7z"/>
				<path class="st4" d="M1346.9,1401.7c4.7,1.3,8.9,4.4,13,6.9c4.4,2.6,8.8,5.2,13.2,7.9c7.3,4.5,14.5,9.2,21.8,13.8
					c-3.2-12.6-6.6-25.1-10.2-37.6c-3.1-10.6-6.4-21.1-9.7-31.7c-3.3-10.5-7.3-20.9-8.9-31.8c-0.7-4.5,5.1-7.7,7.8-3.3
					c5.1,8.5,8.2,17.8,11.3,27.2c3.2,9.4,6.1,18.9,8.8,28.5c1.6,5.6,3.2,11.3,4.7,16.9c1.7-6.2,3.6-12.4,5.2-18.5
					c2.8-10.7,5.6-21.5,8.5-32.2c0.7-2.8,4.9-1.6,4.3,1.2c-2.3,10.9-4.6,21.8-6.9,32.6c-2.3,10.6-3.7,22-7,32.3
					c2.1,8.2,4,16.4,5.9,24.6c8.6,38.2,14.7,76.8,18.6,115.7c2.2,22.2,3.6,44.5,4.6,66.9c0.2,5.5-8.4,5.5-8.6,0
					c-2.6-61.6-11.8-123.2-26.4-183.3c-0.1,0-0.2-0.1-0.4-0.1c-9.1-4.6-18.4-9.1-27.5-13.9c-4.3-2.3-8.5-4.6-12.8-6.9
					c-4.5-2.4-9.6-4.5-13.3-8.1C1339.8,1405.7,1342.9,1400.6,1346.9,1401.7z"/>
				<path class="st4" d="M1278,1536.7c14.8,7.6,29.8,14.9,44.5,22.7c-13.6-24.1-27.3-48.4-38-73.9c-1.8-4.4,5.1-6.8,7.4-3.1
					c15.8,24.5,28.4,51.1,41.1,77.3c6.3,13,12.5,26.1,18.6,39.3c6.1,13.4,13.6,26.2,20.5,39.2c1.5,2.9-2.9,5.5-4.4,2.6
					c-6.8-13-13.2-26.5-20.7-39.1c-6.1-10.2-12.1-20.5-18-30.8c-1.3,0.8-2.9,1-4.6,0.1c-17-8.7-33.6-18.3-50.4-27.5
					C1269.5,1541.1,1273.5,1534.4,1278,1536.7z"/>
			</g>
		</g>
		<ellipse class="st5" cx="1137.7" cy="1676.1" rx="991.3" ry="105.9"/>
		<ellipse class="st5" cx="1137.7" cy="1676.1" rx="991.3" ry="105.9"/>
		<path class="st6" d="M511.3,1672.5c153.7,13.7,310.1-4.3,456.6-52.5c12.7-4.2,26.3-9.3,33.6-20.6c5.3-8.3,6.2-18.5,6.9-28.2
			c0,0,0-0.1,0-0.1c-40.1,0.6-79.5,1.4-118,2.4c-8.7,10.8-18.2,21-29.3,29.3c-32,24-73.7,30-113.4,34.3
			c-86.5,9.5-180.1,13.3-253.8-32.9c-3.4-2.1-7.3-4.7-11.6-7.6c-46,4.3-88.1,9.1-125.9,14.3C367.6,1659.8,474.5,1669.2,511.3,1672.5
			z"/>
		<ellipse class="st7" cx="1216.5" cy="1703.4" rx="454.6" ry="48.6"/>
		<g>
			<path class="st8" d="M424.2,1589.1c0,0-44.3,38.8-43.8,62c0.6,23.2,96.3,16.2,106.5,5.5c10.2-10.7-11-67.5-11-67.5
				S439.6,1574.1,424.2,1589.1z"/>
			<g>
				<path class="st8" d="M954.3,1566.8c0,0-18.3,46.5-9.8,49.3c8.5,2.7,160.8,10.3,152.8,0c-8-10.3-44.8-31.9-77.4-44.6l-20.1-23.1
					L954.3,1566.8z"/>
				<g>
					<path class="st9" d="M503.6,1157.7L476,1336.5c0,0-70,24.8-51.8,252.6H476c0,0,61.6-258.3,146.6-416
						C622.5,1173.1,531.1,1123.3,503.6,1157.7z"/>
					<path class="st8" d="M503.6,1157.7l-13.3,86.5c10.9,8.5,22.9,15.5,35.8,20.4c16,6.1,33.4,8.8,50.5,7.7
						c14.3-35.1,29.7-69,46-99.2C622.5,1173.1,531.1,1123.3,503.6,1157.7z"/>
					<path class="st9" d="M786.9,1118.1c3.1,8.2,64.6,173.5,64.6,173.5s-26.8,41.3,0,87.9c26.8,46.6,102.9,187.2,102.9,187.2
						l45.6-18.4l-148.4-490.9L786.9,1118.1z"/>
					<path class="st8" d="M851.4,1057.4l-64.6,60.7c1.6,4.2,18.5,49.7,34.6,93c24-5.6,47-15.6,67.5-29.3L851.4,1057.4z"/>
					<path class="st10" d="M500.6,930.6L476,1192.1c0,0,65.7,69.7,162.8,32.6l62.7-170.7l58.5,131.4c0,0,151.7-9.3,172.1-107.8
						L814.3,869C814.3,869,548.7,884.2,500.6,930.6z"/>
					<path class="st8" d="M635.1,1043.6c-2.9-8.7-5.8-17.4-8.6-26.1c-0.5-1.6-1.1-3.3-2.5-4.2c-1.4-1-3.3-0.8-5.1-0.7
						c-41.8,4.1-84.3,1.6-125.3-7.3l-4,42.9c7.6,0.8,15.2,1.4,22.9,2c-2.2,23.3-4.4,46.5-6.6,69.8c-1.3,13.5-2.6,26.9-3.8,40.4
						l-2,20.7c-0.3,3.3-0.6,6.6-0.9,9.8c-0.2,1.9,0.1,7-0.6,10c-0.2,0.1-0.5,0.2-0.7,0.4c-0.1,0.1-0.3,0.2-0.4,0.3
						c-0.9,0.7-1.5,1.7-1.1,2.8c0.5,1.5,1.1,2.1,2.6,2.7c0.8,0.3,1.9-0.1,2.4-0.6c3.4-3.4,2.5-11.1,2.9-15.5
						c0.7-7.2,1.4-14.4,2.1-21.7c1.4-14.8,2.8-29.5,4.2-44.3c2.4-24.8,4.7-49.6,7.1-74.3c18.1,1.2,36.3,1.8,54.4,1.7
						C593.2,1052.2,615.1,1051.2,635.1,1043.6z"/>
					<g>
						<g>
							<g>
								<polygon class="st9" points="512,372.3 500.3,449.2 580.8,440.8 562.5,385.4 								"/>
								<path class="st8" d="M573.6,418.8l-11-33.3L512,372.3l-5.2,34C527,417.1,550.7,421.6,573.6,418.8z"/>
								<path class="st9" d="M596.3,309.5c0,0,37.2,99.4-1.6,104s-99.8,3.5-89.3-90C505.4,323.5,559.5,261.9,596.3,309.5z"/>
								<path class="st9" d="M476,369.7c0.1,4,0.9,8,2.7,11.5c1.9,3.6,4.8,6.5,8,8.9c3.8,2.8,8,4.9,12.7,5.6
									c7.8,1.3,16.1-1.8,21.2-7.9c9.1-10.8,1.3-33.3-11.3-38.8C492.5,341.6,475.4,350.5,476,369.7z"/>
							</g>
							<path class="st8" d="M501.4,347.8c3.5,13.8,7.9,27.3,13.2,40.5c3.7-5.3,7.5-10.6,11.2-15.9c0.2-0.2,0.3-0.6,0.2-0.8
								c-0.2-0.2-0.7,0.2-0.4,0.3c-1.2-0.6,0.1-2.6-0.4-3.8c-3.2-6.8-6-13.7-8.3-20.8c-1.1-3.4-2.2-6.5-2.1-10.1
								c16.7,5.5,33.2,2.7,50.7,1.2c-8.4-1.2-16.5-3.8-24-7.8c31,0.2,62.1-6.1,90.7-18.1c-8.3,0.5-18.1,0.9-26.5,1.3
								c17.4-11.5,34.4-23.6,51.1-36.1c-23.3-0.6-51.9,0.9-74.9,4c7-11.6,8.9-19.4,15.9-31c-22.2,10.5-42.7,24.8-60.3,42
								c0,0.6-4.3,1.4-4.3,0.9c0.2-10.2,4.2-20,9.8-28.6c-14.3,10-27,22.3-37.5,36.3c-2.9,3.8-5.6,7.9-6.7,12.5
								c0.6,2-0.4,7.6,0.2,9.6c-6.1,1-12.1,2.8-17.9,5.1c-0.4,0.2-0.8,0.3-1,0.7c-0.4,0.6,0.1,1.4,0.6,2
								C485.8,337.2,495.3,342.3,501.4,347.8z"/>
						</g>
						<path class="st9" d="M1204.2,234.1c-6.1,3.7-648.8,201.2-648.8,201.2l-165,22c-26.1,3.5-48.8,19.8-60.3,43.6L148.8,873.7
							c0,0,335.3,178.1,490,148v-20.9c0,0-46.4-17.6-100-47.2c72.1-4.5,243.6-21.7,275.5-84.5c0,0-21.6-169.2-72.7-272l220.5-182.1
							c0,0,105.2,36.6,226.8-119.1l22.8-29L1204.2,234.1z M348.6,813.9l92.6-117l59.5,234.1C457.5,903.4,370.4,852.2,348.6,813.9z"
							/>
						<path class="st8" d="M745.2,594l216.8-179.1c0,0,105.2,36.6,226.8-119.1l11.1-14C1070.7,344.3,689.1,519.9,745.2,594z"/>
						<path class="st8" d="M438.9,699.8l2.4-3l59.4,233.8c13.4,9,27.8,17.8,38.2,22.9c13.3-0.8,30.1-2.1,48.7-4
							c-29.5-102.8-77.9-200.2-142.2-285.7C442.6,675.7,440.5,687.7,438.9,699.8z"/>
						<path class="st8" d="M348.6,813.9l19.8-25c-39.7,14.7-105.8,38.4-105.8,38.4l152.2,47.9C385.6,854.5,359.3,832.6,348.6,813.9z
							"/>
						<path class="st8" d="M562.2,617c-17-1.1-33.7,2.5-48.7,10.4c-1.3,0.4-2.5,1.2-3.8,2.4c-1.7,1.7-0.5,5.4,2.1,5.1
							c10.2-1,20.4-2.5,30.6-4.4c7.6-1.4,17.7-2,22.4-9C566.2,619.5,564.3,617.1,562.2,617z"/>
						<path class="st8" d="M727.4,585.2c-17-1.1-33.7,2.5-48.7,10.4c-1.3,0.4-2.5,1.2-3.8,2.4c-1.7,1.7-0.5,5.4,2.1,5.1
							c10.2-1,20.4-2.5,30.6-4.4c7.6-1.4,17.7-2,22.4-9C731.4,587.6,729.5,585.3,727.4,585.2z"/>
						<path class="st8" d="M624.6,630.1c-42.8,29.8-97.9,39.7-148.4,26.3c-3.7-1-5.3,4.8-1.6,5.8c51.9,13.8,108.9,3.8,153-26.9
							C630.8,633.1,627.8,627.9,624.6,630.1z"/>
						<path class="st8" d="M758.8,596.4c-26.5,18.7-58.5,27.8-90.8,25.8c-3.9-0.2-3.8,5.8,0,6c33.3,2,66.6-7.4,93.9-26.6
							C765,599.4,762,594.2,758.8,596.4z"/>
						<path class="st8" d="M1029.7,578c-3.9,0-3.9,6,0,6C1033.5,584,1033.6,578,1029.7,578z"/>
						<path class="st8" d="M566.6,434.1c-3.8,8.2-6.7,16.6-8.7,25.3c-10.8-8.2-22.4-15-34.7-20.6c-2.9-1.3-5.5,3-2.5,4.3
							c12.9,5.8,24.9,13,36.1,21.6c0,0.1,0,0.1,0,0.2c-0.6,3.1,4.2,4.5,4.8,1.3c1.9-10.3,4.9-20.2,9.3-29.7
							C572.2,433.7,567.9,431.2,566.6,434.1z"/>
						<path class="st8" d="M725.5,845.8c-13.4-12.6-20.4-30.3-19.1-48.7c0.2-3.2-4.8-3.2-5,0c-1.3,19.6,6.3,38.8,20.6,52.2
							C724.3,851.5,727.9,848,725.5,845.8z"/>
					</g>
					<path class="st8" d="M750.1,1022.8c-13.3,11-25.9,22.8-37.9,35.3c16.6-43-3.3-90.2-6.7-134.2c-0.2-3.2-5.3-3.2-5,0
						c3.4,44.2,24.5,93,5.6,135.9c-8.7-39.3-16.3-78.8-22.6-118.6c-0.5-3.2-5.3-1.8-4.8,1.3c6.2,39.1,13.6,78.1,22.2,116.7
						c-16.7-8.8-31.3-21-42.8-36c-1.9-2.5-6.3,0-4.3,2.5c12.4,16.2,28,29.3,46.2,38.6c0.8,0.4,1.5,0.4,2.1,0.1
						c0.3,1.1,0.5,2.3,0.8,3.4c0.2,0.8,0.8,1.4,1.5,1.6c0.8,1.1,2.5,1.7,3.7,0.3c14.2-15.6,29.4-30.1,45.6-43.6
						C756.1,1024.3,752.6,1020.8,750.1,1022.8z"/>
					<path class="st8" d="M919.6,1106.8c-3.4-4.7-6.7-9.6-9.6-14.6c-4.7-8-8.3-16.7-12.2-25.1c-4.3-9.3-9.3-18.1-14.3-27.1
						c-10-17.9-20.1-35.8-30.2-53.6c-9.1-16.1-18-32.3-28.1-47.9c-9.9-15.2-21.9-31.8-23.9-50.4c-0.3-3.2-5.4-3.2-5,0
						c1.7,15.4,9.6,29.3,17.7,42.2c9.3,14.8,18.5,29.5,27.2,44.8c10.3,18.1,20.5,36.3,30.7,54.5c9.9,17.6,19.1,35.2,27.7,53.5
						c3.8,8.1,8.2,15.9,13.4,23.2c1.3,1.9,2.7,3.7,4.1,5.6c0.3,0.4,0.6,0.9,1,1.3c-0.2,0.7,0,1.5,0.6,2.2c0.9,1,2.3,2.8,3.9,2.7
						c1.2-0.1,2.7-1.1,2.5-2.5C924.7,1112.4,921.4,1109.3,919.6,1106.8z"/>
					<path class="st9" d="M650.7,1048.7c0.2,1.7,0.4,3.5,1.4,4.9c0.8,1.2,2.2,2,3.5,2.7c8.3,4.4,18.5,6.9,23.5,14.9
						c1.1,1.7,2,3.8,3.8,4.6c2.4,1.2,5.3-0.2,7.3-2c7.1-6.4,8.3-17.1,7.1-26.6c-1.2-9.5-4.3-18.8-4.1-28.3c0.1-3.4,0.4-7.3-2.1-9.6
						c-1.1-1-2.6-1.5-4.1-1.9c-4.4-1.3-8.9-2.2-13.4-2.9c2.1-3.3-0.6-8-4.3-9.4c-3.7-1.4-7.8-0.6-11.6,0.3c-6.7,1.5-13.4,3-20.1,4.6
						c-2,0.4-4,0.9-5.6,2.1c-3.3,2.4-4.1,7.1-3,11.1c2.2,7.9,8.1,9.1,13.2,14.4C647.5,1033,649.8,1041.3,650.7,1048.7z"/>
					<path class="st9" d="M1295.3,174.1c1.2,12.5-10.1,22.1-19.8,30c-10.8,8.8-21,18.3-30.6,28.5c-2.6,2.8-5.2,5.7-6.3,9.4
						c-1,3.7,0.1,8.2,3.5,9.9c1.8,0.9,3.9,0.9,5.9,0.9c6-0.1,11.9-0.1,17.9-0.2c1.6,0,3.2,0,4.4,1c2,1.6,1.4,5-0.4,6.7
						c-1.8,1.7-4.5,2.3-7,2.6c-12.8,2-25.8,2.3-38.5,4.8c-13.8,2.8-23.4,11.5-36.1,15.6c-27.9,8.9-20.9-26.2-8.9-39.1
						c11.2-11.9,30.6-16.9,44.1-25.9C1247,202.8,1268.4,184.1,1295.3,174.1z"/>
				</g>
				<path class="st8" d="M317.6,905.5c-11.3,19.9-17.4,42.1-17.8,65c-0.1,3.2,4.9,3.2,5,0c0.4-22,6.2-43.4,17.1-62.5
					C323.5,905.2,319.1,902.7,317.6,905.5z"/>
				<path class="st8" d="M342.2,934.9c-6.4,19.3-9.7,39.4-9.6,59.7c0,3.2,5,3.2,5,0c0-19.9,3.2-39.5,9.5-58.3
					C348.1,933.2,343.3,931.9,342.2,934.9z"/>
				<path class="st8" d="M366.9,943.2c-7.2,21.8-8.2,45-2.9,67.4c0.7,3.1,5.6,1.8,4.8-1.3c-5-21.5-4-43.7,2.9-64.7
					C372.8,941.4,367.9,940.1,366.9,943.2z"/>
				<path class="st8" d="M395.9,972.6c-2.1,16.8-2.6,33.6-1.5,50.5c0.2,3.2,5.2,3.2,5,0c-1.1-16.9-0.6-33.7,1.5-50.5
					C401.3,969.4,396.3,969.5,395.9,972.6z"/>
				<path class="st8" d="M586.8,498.9c-22.5,3.5-44.5,9.4-65.7,17.7c-3,1.2-1.7,6,1.3,4.8c21.2-8.3,43.2-14.2,65.7-17.7
					C591.3,503.2,589.9,498.4,586.8,498.9z"/>
				<path class="st8" d="M606.5,503.2c-25.2,7.3-49.5,17-72.8,29c-2.9,1.5-0.3,5.8,2.5,4.3c22.9-11.8,46.9-21.3,71.6-28.5
					C610.9,507.1,609.6,502.3,606.5,503.2z"/>
				<path class="st8" d="M602.1,531.6c-20.8,4.6-41.3,10.6-61.3,17.9c-3,1.1-1.7,5.9,1.3,4.8c20-7.3,40.5-13.3,61.3-17.9
					C606.6,535.8,605.2,530.9,602.1,531.6z"/>
				<path class="st8" d="M613.1,553.6l-46,6.8c-3.2,0.5-1.8,5.3,1.3,4.8l46-6.8C617.6,558,616.2,553.1,613.1,553.6z"/>
				<path class="st8" d="M973.2,324c-9.6-11.6-19.9-22.5-31.1-32.5c-2.4-2.1-5.9,1.4-3.5,3.5c11.2,10.1,21.5,20.9,31.1,32.5
					C971.7,330,975.2,326.5,973.2,324z"/>
				<path class="st8" d="M1009.9,317.9c-11-8.7-22.8-16.3-35.3-22.7c-2.9-1.4-5.4,2.9-2.5,4.3c12.2,6.1,23.6,13.4,34.3,21.9
					C1008.9,323.4,1012.5,319.9,1009.9,317.9z"/>
				<path class="st8" d="M1046.9,307.2c-11.2-10.8-25.3-17.3-40.7-19.1c-3.2-0.4-3.2,4.6,0,5c14.1,1.6,27,7.9,37.2,17.7
					C1045.7,313,1049.2,309.4,1046.9,307.2z"/>
				<path class="st8" d="M1088.8,281.7c-6.6-4.3-13.2-8.7-19.8-13c-2.7-1.8-5.2,2.6-2.5,4.3c6.6,4.3,13.2,8.7,19.8,13
					C1089,287.8,1091.5,283.5,1088.8,281.7z"/>
				<path class="st8" d="M502,1471.7c-17.9,0-35.5-3.2-52.2-9.6c-3-1.2-4.3,3.7-1.3,4.8c17.1,6.6,35.2,9.8,53.6,9.8
					C505.2,1476.7,505.2,1471.7,502,1471.7z"/>
				<path class="st8" d="M523.9,1452.4h-48.2c-3.2,0-3.2,5,0,5h48.2C527.1,1457.4,527.1,1452.4,523.9,1452.4z"/>
				<path class="st8" d="M515.1,1430.5h-46c-3.2,0-3.2,5,0,5h46C518.3,1435.5,518.3,1430.5,515.1,1430.5z"/>
				<path class="st8" d="M515.9,1404.1c-13.6-3.3-27.7-2.4-40.8,2.6c-3,1.1-1.7,6,1.3,4.8c12.3-4.7,25.3-5.7,38.1-2.6
					C517.7,1409.6,519,1404.8,515.9,1404.1z"/>
				<path class="st8" d="M928.7,1349.2c-15.5,4-30.3,10.3-44,18.6c-2.7,1.7-0.2,6,2.5,4.3c13.4-8.1,27.7-14.2,42.8-18.1
					C933.1,1353.3,931.8,1348.4,928.7,1349.2z"/>
				<path class="st8" d="M946.2,1362.2c-15.1,4.5-29.2,11.4-41.9,20.7c-2.6,1.9-0.1,6.2,2.5,4.3c12.4-9.1,26-15.9,40.7-20.2
					C950.6,1366.1,949.3,1361.3,946.2,1362.2z"/>
				<path class="st8" d="M965.9,1390.4c-15.8,3.4-30.7,9.8-44.1,18.8c-2.7,1.8-0.2,6.1,2.5,4.3c13.1-8.8,27.5-15,42.9-18.3
					C970.3,1394.5,969,1389.7,965.9,1390.4z"/>
				<path class="st8" d="M977.6,1419.6c-17.5,1.8-34.1,7.1-49.4,15.9c-2.8,1.6-0.3,5.9,2.5,4.3c14.4-8.3,30.3-13.5,46.8-15.2
					C980.8,1424.3,980.9,1419.3,977.6,1419.6z"/>
				<path class="st8" d="M987.9,1459.1c-7.3,2.2-14.6,4.4-21.9,6.6c-3.1,0.9-1.8,5.7,1.3,4.8c7.3-2.2,14.6-4.4,21.9-6.6
					C992.3,1463,991,1458.2,987.9,1459.1z"/>
			</g>
		</g>
		<g>
			<g>
				<path class="st8" d="M1735.8,1530.5l-25.1,25.7l41.1,53.7l77.1-2.3c0,0-24-31.7-45-37.4l-23.3-23.6l0,0L1735.8,1530.5z"/>
				<path class="st11" d="M1743.7,1158.8l104.9,149.4c0,0-50.4,31.1-51.2,74c-0.7,42.9-61.6,148.3-61.6,148.3l24.8,16.1l234.1-220.5
					l-112.6-167.3C1882.1,1158.8,1763.4,1112.1,1743.7,1158.8z"/>
				<path class="st8" d="M1879.9,1328.2c-12.4-12.3-30.1-27.2-47.2-42.6l15.9,22.6c0,0-50.4,31.1-51.2,74c-0.1,5.1-1,11.2-2.7,17.8
					C1819.2,1371.8,1848,1347.4,1879.9,1328.2z"/>
				<path class="st8" d="M1882.1,1158.8c0,0-118.7-46.6-138.4,0l70.1,99.9c29.7-23.1,58.9-46.9,87.5-71.3L1882.1,1158.8z"/>
				<path class="st8" d="M1602.4,1201.1c0,0,5.7,148.8,21.8,134.2c16-14.6,42.4-122,30.6-149.1c-11.8-27.1-48.6-9.1-48.6-9.1
					L1602.4,1201.1z"/>
				<path class="st11" d="M1629.7,1186.3L1629.7,1186.3c-3.5-5.6-9.6-9-16.2-8.9c-23.7,0.4-83.9,1.3-150-0.2
					c-85.3-1.9-146.1,24.7-146.1,24.7l60.8-58.9l75.1-30.4l-55.2-86.9c-297.4,126.5-271.3,286.7-271.3,286.7l490.7-98.1
					C1630.2,1211.8,1636.5,1197.4,1629.7,1186.3z"/>
				<path class="st8" d="M1321.8,1189c1,1.9,2,3.8,2.9,5.8l53.5-51.8l75.1-30.4l-55.2-86.9c-60,25.5-106.8,52.4-143.4,79.1
					C1282.3,1128.1,1305.2,1156.9,1321.8,1189z"/>
				<polygon class="st10" points="1457.5,976.7 1252.3,1094.7 1368.3,1186 1560.4,1090.8 1625.2,1098.4 1760.5,1231.4 1906,1181.7 
					1733.5,941 				"/>
				<path class="st11" d="M1476.3,467.1c1.3-0.1,6.8,0.3,15.6,1.2c59.4,6.6,269.4,39.5,356.7,110.1l84.6,115.5
					c0,0,25-52.3,69.5-63.8c44.5-11.5,98.6-72,98.6-72l30.1,9.5c0,0-87,300-163.8,308.6c-76.9,8.5-149.8-87.7-149.8-87.7
					l-74.6,176.5c0,0-126.9,84.2-285.6,11.7c0,0-43.9-151.3,2.1-301.5L1162,472.8l294.1-244.7l34.6,23.8c0,0-47,55.2-59.1,94.2
					s-23.8,66.9-87.7,100.7"/>
				<path class="st8" d="M1611.8,537.5c0.2,2.3,0.4,4.6,1.6,6.6c1.7,2.9,5.1,4.4,8.4,5.2c12.3,3,25.6-1.1,35.9-8.4
					c10.4-7.3,18.3-17.5,25.7-27.8c1.5-2.1,2.9-4.1,4.3-6.2c-26-7.3-52.1-13.5-76.6-18.7C1610.2,504.6,1610.5,521.1,1611.8,537.5z"
					/>
				<path class="st8" d="M1168.1,467.7l-6.1,5.1l297.6,202.4c-0.9,3-1.8,6-2.7,9.1c7-15.2,14.5-30.1,22.5-44.8
					C1381.3,572.7,1276.9,515.1,1168.1,467.7z"/>
				<path class="st8" d="M1941,712.7c8.1-16.2,21.5-29,34.6-41.5c19.5-18.5,39-37,58.5-55.4c-10.5,6.5-21.3,11.8-31.6,14.4
					c-44.5,11.5-69.5,63.8-69.5,63.8l-21.3-29.1c1,29.1,8.2,57.9,21.1,84C1932.6,736.4,1935.4,723.9,1941,712.7z"/>
				<path class="st8" d="M1704.2,984.2c24.7-9.8,38.9-19.2,38.9-19.2l74.6-176.5c0,0,4,5.3,11.2,13.4c-8.1-23.9-13.8-48.5-16.8-73.5
					C1780.7,815.5,1744.6,900.9,1704.2,984.2z"/>
				<path class="st8" d="M1870.1,1215.6c-32.7-43.9-63-89.6-90.7-136.8c5.1,2,10.4,3.5,16.1,4.4c3.1,0.5,4.5-4.3,1.3-4.8
					c-7.9-1.3-15.1-3.7-21.8-7.1c-6.2-10.7-12.3-21.6-18.2-32.5c-9.6-17.6-18.8-35.4-27.6-53.4c-1.4-2.9-5.7-0.4-4.3,2.5
					c13.1,26.5,26.9,52.7,41.6,78.3c-14.6-9.7-26.2-23.8-35.8-39.2c2.9-1,5.7-2,8.6-3.1c3-1.1,1.7-6-1.3-4.8
					c-3.3,1.2-6.6,2.4-9.9,3.6c-5.5-9.2-10.3-18.7-14.8-27.9c-1.4-2.9-5.7-0.4-4.3,2.5c4.3,8.9,9,18.1,14.3,27
					c-33.5,10.9-68.7,16.4-103.9,16.3c0-5.9,0-11.9,0-17.8c0-3.2-5-3.2-5,0c0,5.9,0,11.8,0,17.7c-15.8-0.3-31.6-1.7-47.3-4.4
					c-0.4-10.3-0.4-20.6-0.1-30.9c0.1-3.2-4.9-3.2-5,0c-0.3,9.9-0.4,20-0.1,30c-2.7-0.5-5.3-1-8-1.6c-15.3-3.2-34.4-6.2-44.7-19.1
					c-2-2.5-5.5,1-3.5,3.5c8.9,11.1,23.2,14.8,36.4,18c6.6,1.6,13.3,3,20.1,4.2c0.5,11.3,1.5,22.5,3.2,33.6c1.4,9.3,9.2,9,17.1,9.7
					c11.5,0.9,23,0.8,34.5-0.1c1.3-0.1,2.5-1.1,2.5-2.5c0-11.8,0-23.6,0-35.4c22.2,0.1,44.5-2,66.3-6.3c13.7-2.7,27.1-6.2,40.3-10.6
					c11.8,19,26.4,36.3,45.7,46.4c18.6,32.1,38.3,63.4,59.2,94c11.3,16.5,23,32.8,35,48.9
					C1867.7,1220.7,1872.1,1218.2,1870.1,1215.6z M1614.2,1078.8c-8.7,0.6-17.5,0.7-26.2,0.3c-2.6-0.1-5.1-0.3-7.7-0.5
					c-2.3-0.2-5.9,0.1-7.9-1c-3.7-2.1-3-9.8-3.4-13.5c-0.8-7.5-1.4-15.1-1.8-22.7c7.2,1.2,14.4,2.1,21.6,2.8
					c8.5,0.8,16.9,1.3,25.4,1.5C1614.2,1056.7,1614.2,1067.8,1614.2,1078.8z"/>
			</g>
			<path class="st8" d="M1518,681.9c-6-4.2-12.2-7.7-18.9-10.6c-1.3-0.6-2.5,0-3.2,0.8c-0.7-0.1-1.5-0.1-2.3,0
				c-2.4,0.2-3.5,3.3-1.3,4.7c7.3,4.6,15.2,7.9,23.7,9.6C1518.9,687,1520.3,683.5,1518,681.9z"/>
			<path class="st8" d="M1696,721.4c-0.2-0.8-0.7-1.4-1.6-1.7l-4.7-1.6c-4.2-1.9-8.5-3.4-12.9-4.5c-2-0.7-4-1.4-6.1-2.1
				c-1.6-0.6-3.1,0.9-3.2,2.4c-0.7,1.3-0.3,3,1.5,3.3c0.5,0.1,1,0.2,1.6,0.3c7,5.1,15,8,23.9,8.4
				C1696.9,726,1697.7,722.8,1696,721.4z"/>
			<path class="st8" d="M1523.3,732c-25.7,1.9-55.1,3.6-75.1-15.7c-2.3-2.2-5.9,1.3-3.5,3.5c21,20.3,51.5,19.2,78.6,17.2
				C1526.5,736.8,1526.5,731.8,1523.3,732z"/>
			<path class="st8" d="M1712.6,775.3c-36.8,2.5-80.2-2.3-102-36.3c-1.7-2.7-6.1-0.2-4.3,2.5c22.8,35.6,67.6,41.5,106.3,38.8
				C1715.8,780,1715.9,775,1712.6,775.3z"/>
			<g>
				<path class="st11" d="M1714.4,449.6c-4.5-24.7-41.8-6.3-41.8-6.3s-23.9-40.5-56.7-6.8c-5.7,5.9-9.3,13.5-10,21.7
					c-2.2,23.1-3.9,73.4,23.5,73.1c35.6-0.4,52.1-14,59.4-55.6C1688.8,475.7,1718.9,474.3,1714.4,449.6z"/>
				<path class="st8" d="M1648.3,460.5c8.4-3,16-8.1,22.8-13.8c2.1-1.7,4.1-3.5,6-5.3c-2.8,1.1-4.6,2-4.6,2s-23.9-40.5-56.7-6.8
					c-5.7,5.9-9.2,13.5-10,21.6C1619,464.4,1634.7,465.5,1648.3,460.5z"/>
				<path class="st9" d="M1690,430.3c-1.3-6.8-3.6-13.5-6.8-19.7c-2-3.8-4.4-7.7-8.2-9.7c-3.2-1.7-6.9-2.1-10.5-2
					c-4.2,0-8.7,0.3-13,1c-8.5,1.3-16.2,5.5-22.4,11.4c-1.6,1.5-3.5,2.7-5.7,3.2c-4.1,1.1-8.8,0-12-2.9c-1-0.9-1.8-1.9-3-2.4
					c-1-0.5-2.2-0.5-3.4-0.4c-3.8,0.5-10.3,3-10.9,6.8c-2.1,11.5,3.5,24.1,13.4,30.3c8.5,5.3,19,6,29,5.9
					c11.8-0.1,23.6-1.6,33.5-8.1c2.3,5,1.5,10.9,1.6,16.4c0.1,2.7,0.5,5.5,2.3,7.6c1.2,1.4,3,2.2,4.8,1.8c3.5-0.6,4.7-4.9,5-8.4
					c0.6-6.4,0.7-12.8,0.3-19.2C1688.5,439.8,1690.9,435.1,1690,430.3z"/>
			</g>
			<path class="st11" d="M2101.6,567.4c-0.5-18.1-8.6-35.9-22-48c-0.3-0.3-0.7-0.7-0.7-1.1c0-0.5,0.5-0.9,0.9-1.1
				c2.9-1.7,6.7-0.9,9.5,1s4.6,4.9,6.2,7.8c0.4,0.7,0.9,1.5,1.6,1.8c0.7,0.3,1.4,0.1,2.2,0.1c1.7,0,3.4,0.7,4.5,2
				c-2.7-10.9-1.8-20.9-0.4-32.1c0.2-1.7,0.7-3.7,2.3-4.3c2.7-0.9,4.3,2.9,4.6,5.7c0.9,9.2,1.8,18.4,2.7,27.6
				c2.4-7.3,4.8-14.6,7.2-21.9c0.7-2.2,1.5-4.5,3.3-5.9s5-1.2,5.9,0.8c0.4,0.8,0.3,1.8,0.3,2.7c-0.6,8.2-2.3,16.3-5.1,24.1
				c3.9-7.3,9.5-13.8,16.3-18.6c1.3-0.9,2.7-1.8,4.2-1.5c1.9,0.3,3.1,2.5,3,4.4c-0.1,1.9-1,3.7-2,5.4c-3.6,6.5-7.2,13.1-10.8,19.6
				c4-2.7,8.7-4.4,13.6-4.7c1.1-0.1,2.2-0.1,3.1,0.4c2.4,1.2,2.3,4.8,0.7,7c-1.6,2.1-4.1,3.3-6.4,4.7c-6.8,4.5-10.6,12.2-13.2,19.9
				c-1.4,4-2.5,8.2-4.7,11.9c-2.2,3.6-5.7,6.8-10,7.2C2112.1,583.1,2101.7,574.1,2101.6,567.4z"/>
			<path class="st11" d="M1434.4,241.1c18.7-13.8,31.4-35.4,34.3-58.5c0.1-0.6,0.2-1.3,0.7-1.6c0.5-0.4,1.3-0.2,1.8,0.1
				c3.9,1.8,5.9,6.4,5.9,10.7c0,4.3-1.7,8.4-3.6,12.3c-0.4,1-0.9,2-0.7,3c0.2,0.9,0.9,1.6,1.5,2.4c1.3,1.8,1.7,4.2,1.2,6.3
				c9.5-10.9,20.6-17.2,33.4-24c1.9-1,4.4-2,6.2-0.7c2.9,2.1,0.2,6.6-2.6,9c-9,7.7-18,15.4-27,23.2c9.4-2.8,18.9-5.7,28.3-8.5
				c2.8-0.8,5.8-1.7,8.6-0.8c2.8,0.9,5,4.3,3.5,6.8c-0.6,1-1.6,1.7-2.6,2.3c-9,5.4-18.8,9.6-29,12.4c10.6-1.3,21.5-0.1,31.5,3.4
				c1.9,0.7,3.9,1.5,4.7,3.3c1,2.3-0.3,5-2.4,6.4c-2.1,1.4-4.6,1.7-7.1,1.9c-9.5,1-19,2-28.5,3.1c5.8,2.2,11,6,14.9,10.8
				c0.9,1.1,1.7,2.2,1.9,3.6c0.5,3.4-3.4,6-6.8,5.9c-3.4-0.1-6.5-1.9-9.7-3.2c-9.7-3.8-20.7-2.1-30.6,0.8
				c-5.2,1.6-10.4,3.5-15.9,3.8c-5.4,0.4-11.3-1.1-14.9-5.2C1425.7,263.7,1427.5,246.2,1434.4,241.1z"/>
		</g>
		<g>
			<g>
				<path class="st12" d="M1536.7,675.4L1362,427.9l-199.6-24.6L962.7,447c0,0-57.4,212.6,62.7,469.2h243.3l67.1-201.5l70.9,70.4
					c21,20.9,51.3,29.4,80,22.5h0C1545.5,793.6,1571.5,724.7,1536.7,675.4z"/>
				<path class="st8" d="M1372.3,673.8c8.9-14.9,27.2-21.3,44.5-23.7c4.2-0.6,8.6-1,12.7,0.2c5.1,1.5,9.1,5.4,13,9.1
					c1.8,1.7,3.7,3.8,3.7,6.3c0,2.7-2.1,4.8-4.1,6.5c-15.5,13.3-33.7,23.8-53.2,30.1c-7.1,2.3-15.5,4.8-19.2-3.5
					C1366.3,691.4,1368.3,680.5,1372.3,673.8z"/>
				<path class="st8" d="M1472,717.7c-18.6-1.9-38.8,3.1-51.5,16.8c-10.1,10.9-14.4,25.9-16,40.7c-0.3,2.4-0.4,4.8-0.6,7.3l2.7,2.7
					c21,20.9,51.3,29.4,80,22.5h0c31.3-7.5,53.3-30.5,61.8-57.9c-7.6-5.1-15.6-9.5-23.8-13.7C1508.1,727.4,1490.6,719.6,1472,717.7z
					"/>
				<path class="st8" d="M1491.9,687.5c16.1-3.1,31.9,5.9,48.3,7.1c2.2,0.2,4.4,0.2,6.6-0.1c-2.5-6.6-5.9-13-10.2-19.1l-13.3-18.9
					c-62.5,17.1-123.6,39-184.6,61.2l19.3,19.2c35.9-11.8,74.4-17,106.9-36.2C1473.7,695.5,1482.1,689.4,1491.9,687.5z"/>
				<path class="st8" d="M1330.9,595.3c-33.8,56.6-39.1,125.2-42.3,191c-0.6,12,4.7,23,12.3,33.2l34.9-104.8l4.5,4.5
					C1325.9,679.8,1322.2,636.4,1330.9,595.3z"/>
				<path class="st8" d="M1131.8,448c7.5,8.7,21.8,7.7,31.7,2c10.5-6.1,18.1-16.3,23.1-27.5c2.2-5,4-10.3,5.4-15.6l-29.6-3.6
					l-42.9,9.4c1.5,9,4,17.9,7.4,26.5C1128.2,442.2,1129.6,445.4,1131.8,448z"/>
				<path class="st8" d="M1423.2,1207.6l-81.1,12.8l-73.5-304.1c0,0-200.8-18.1-243.3,0c0,0-279.3,245.8-281.9,278.6
					s169.4,379.6,169.4,379.6l31.3-2.9c0,0,13.5-209.1-42.9-245.3l-13.2-94.8l224.9-210c0,0,150.6,346.8,235.2,330.5
					c84.6-16.3,300.9-131.7,300.9-131.7v-19.9C1649,1200.5,1453,1170.6,1423.2,1207.6z"/>
				<path class="st12" d="M844.8,1081.7c-54.4,52.3-100.3,100-101.3,113.2c-2.6,32.7,169.4,379.6,169.4,379.6l31.3-2.9
					c0,0,13.5-209.1-42.9-245.3l-13.2-94.8l59-55.1c-6.3-20.8-15.9-40.5-29.9-57C899,1098.2,872.6,1083,844.8,1081.7z"/>
				<path class="st8" d="M893.2,1268.8l-5.2-37.2l31.5-29.4c-30,3.3-59.7,8.8-88.8,16.5C851.5,1235.5,872.3,1252.2,893.2,1268.8z"/>
				<path class="st12" d="M1423.2,1207.6l-81.1,12.8l-16.5-68.1c-34.8,30.4-83.7,44.9-129.3,36.6c48.6,86.1,108.7,171.5,151.6,163.2
					c84.6-16.3,300.9-131.7,300.9-131.7v-19.9C1649,1200.5,1453,1170.6,1423.2,1207.6z"/>
				<path class="st8" d="M1342.5,1254.1c29.9-8.7,59.4-18.3,88.6-29c0.8-0.3,1.7-0.7,2-1.5c0.5-1.2-0.5-2.4-1.5-3.3
					c-3.7-3.7-6.8-7.9-9.2-12.6l-80.3,12.6l-4.8-19.9C1337.2,1218.5,1338.9,1236.5,1342.5,1254.1z"/>
				<path class="st13" d="M1309.8,768c-20.6-24-22.1-58.6-19.3-90.1c6.6-75.9,71.6-250,71.6-250l-48.4-6
					c-10.9,38.6-19.4,77.9-25.5,117.5c-1.9,12.2-3.6,24.6-8.6,35.9c-8.3,18.5-25.2,32.2-43.9,40c-18.7,7.8-39.3,10.1-59.6,10.6
					c-41.6,0.9-82.9-5.8-124-12.5c-21.1-3.5-43-7.2-60.6-19.3c-4.5-3.1-8.7-6.8-10.9-11.7c-2.3-5.1-2.2-11-1.9-16.6
					c2-43.4,10.2-86.4,24.3-127.5l-40.2,8.8c0,0-57.4,212.6,62.7,469.2h243.3l47.4-142.2C1313.8,772.2,1311.7,770.2,1309.8,768z"/>
				<g>
					<path class="st14" d="M990.9,802.7c-15.4-79.1-23.2-159.7-23.3-240.3c-0.1-39.3,1.7-78.5,5.3-117.6l-5.1,1.1
						c-6.7,74.1-7,148.7-0.6,222.9c4.8,56.1,13.3,111.8,25.4,166.8c4.3,12.4,9,25,14.1,37.7C1000.8,849.9,995.5,826.3,990.9,802.7z"
						/>
					<path class="st14" d="M991.3,440.8c-0.9,14.8-1.4,29.6-1.8,44.4c1.7-7.5,3.6-15,5.7-22.4c0.3-7.7,0.7-15.4,1.1-23.1
						L991.3,440.8z"/>
					<path class="st14" d="M1016.9,759.3c-10.1-53.5-16.9-107.7-20.2-162.1c-1.8-1-3.5-2.1-5.2-3.2c0.9,15.6,2.1,31.1,3.6,46.6
						c6.8,70.9,19.2,141.4,37.4,210.3c5.8,21.9,12.1,43.7,19,65.3h5.2C1040.2,864.8,1026.9,812.4,1016.9,759.3z"/>
					<path class="st14" d="M1036.7,667.4c-3.8-19.7-7.6-39.5-11.4-59.3c-1.8-0.4-3.6-0.9-5.3-1.4c19.5,102.4,40,204.7,61.6,306.7
						c0.2,0.9,0.4,1.8,0.6,2.8h5.1C1069.7,833.5,1052.9,750.5,1036.7,667.4z"/>
					<path class="st14" d="M1088.6,665.7c-2.5-15.9-4.9-31.8-7.4-47.7c-1.7-0.3-3.4-0.5-5.2-0.8c12.9,83.1,25.8,166.2,38.7,249.3
						c2.6,16.6,5.1,33.2,7.7,49.8h5C1114.5,832.7,1101.5,749.2,1088.6,665.7z"/>
					<path class="st14" d="M1149.4,690.3c-3.7-21.9-7.8-43.8-12.4-65.6c-1.7-0.1-3.5-0.3-5.2-0.4c18,84.6,29,170.7,32.6,257.1
						c0.5,11.6,0.8,23.2,1.1,34.9h5C1168.9,840.6,1161.9,765,1149.4,690.3z"/>
					<path class="st14" d="M1223,914.2c0.7-85.4-3.1-170.9-11.5-255.9c-1.2-11.7-2.4-23.5-3.7-35.2c-1.6,0.3-3.3,0.5-4.9,0.8
						c8.2,72.2,13.1,144.8,14.7,217.4c0.5,24.3,0.7,48.6,0.5,72.9c0,1,0.5,1.7,1.1,2.1h2.7C1222.5,915.9,1223,915.2,1223,914.2z"/>
					<path class="st14" d="M1263.2,597.7c-1.6,1.5-3.1,2.9-4.8,4.2c4.2,86.4,1.5,173.1-8.4,259c-2.1,18.5-4.6,37-7.4,55.4h5
						c12.9-85.9,18.8-172.9,17.5-259.8C1264.9,636.8,1264.2,617.2,1263.2,597.7z"/>
					<path class="st14" d="M1283.2,727.5c1.6-71.2,9-142.7,28.2-211.4c8.5-30.5,19.8-60.3,27.2-91.1l-5-0.6
						c-6.4,26.3-15.6,51.8-23.3,77.7c-10.3,34.4-17.7,69.6-22.8,105.1c-10,70.4-10.9,141.8-8.5,212.8c0.6,19.2,1.5,38.5,2.5,57.7
						l4.3-13C1283.6,819,1282.2,773.3,1283.2,727.5z"/>
				</g>
				<g>
					<path class="st12" d="M1216.4,356.8c-4.5-24.7-41.8-6.3-41.8-6.3s-23.9-40.5-56.7-6.8c-5.7,5.9-9.3,13.5-10,21.7
						c-2.2,23.1-3.9,73.4,23.5,73.1c35.6-0.4,52.1-14,59.4-55.6C1190.8,382.9,1220.9,381.5,1216.4,356.8z"/>
					<path class="st8" d="M1150.3,367.6c8.4-3,16-8.1,22.8-13.8c2.1-1.7,4.1-3.5,6-5.3c-2.8,1.1-4.6,2-4.6,2s-23.9-40.5-56.7-6.8
						c-5.7,5.9-9.2,13.5-10,21.6C1121,371.5,1136.7,372.6,1150.3,367.6z"/>
					<path class="st15" d="M1192,337.4c-1.3-6.8-3.6-13.5-6.8-19.7c-2-3.8-4.4-7.7-8.2-9.7c-3.2-1.7-6.9-2.1-10.5-2
						c-4.2,0-8.7,0.3-13,1c-8.5,1.3-16.2,5.5-22.4,11.4c-1.6,1.5-3.5,2.7-5.7,3.2c-4.1,1.1-8.8,0-12-2.9c-1-0.9-1.8-1.9-3-2.4
						c-1-0.5-2.2-0.5-3.4-0.4c-3.8,0.5-10.3,3-10.9,6.8c-2.1,11.5,3.5,24.1,13.4,30.3c8.5,5.3,19,6,29,5.9
						c11.8-0.1,23.6-1.6,33.5-8.1c2.3,5,1.5,10.9,1.6,16.4c0.1,2.7,0.5,5.5,2.3,7.6c1.2,1.4,3,2.2,4.8,1.8c3.5-0.6,4.7-4.9,5-8.4
						c0.6-6.4,0.7-12.8,0.3-19.2C1190.5,346.9,1192.9,342.2,1192,337.4z"/>
				</g>
				<g>
					<path class="st8" d="M1216.2,477.9c-52.3-2.4-104.8-2-157.1,1.1c-3.2,0.2-3.3,5.3,0,5.1c52.3-3.1,104.7-3.4,157.1-1.1
						C1219.5,483.1,1219.5,478,1216.2,477.9z"/>
					<path class="st8" d="M1211.3,503.1c-48.5-4.7-97.3-5.4-145.9-2c-3.2,0.2-3.3,5.3,0,5.1c48.6-3.4,97.4-2.8,145.9,2
						C1214.5,508.5,1214.5,503.5,1211.3,503.1z"/>
					<path class="st8" d="M1207,520.3c-55.6-7.6-111.9-8.6-167.8-2.7c-3.2,0.3-3.3,5.4,0,5.1c55.3-5.8,111.3-5,166.4,2.6
						C1208.9,525.6,1210.3,520.7,1207,520.3z"/>
					<path class="st8" d="M1218.7,537.7c-60.2-2.3-120.5-2.4-180.8-0.2c-3.3,0.1-3.3,5.2,0,5.1c60.2-2.2,120.5-2.1,180.8,0.2
						C1222,542.9,1222,537.9,1218.7,537.7z"/>
					<path class="st8" d="M1231.2,564.9c-65-6.3-130.3-9.6-195.6-9.9c-3.3,0-3.3,5.1,0,5.1c65.3,0.3,130.6,3.6,195.6,9.9
						C1234.5,570.3,1234.4,565.2,1231.2,564.9z"/>
				</g>
				<path class="st8" d="M890.1,1419.7c-18.4-0.7-36.4,4.3-51.7,14.5c-2.7,1.8-0.2,6.2,2.6,4.4c14.6-9.7,31.6-14.5,49.2-13.8
					C893.4,1424.9,893.4,1419.8,890.1,1419.7z"/>
				<path class="st8" d="M867.1,1396.9c-17.6,2.6-34.9,6.5-52,11.5c-3.1,0.9-1.8,5.8,1.4,4.9c17.1-5,34.4-8.8,52-11.5
					C871.7,1401.3,870.3,1396.4,867.1,1396.9z"/>
				<path class="st8" d="M854.8,1361.6c-19.9-0.4-39.4,4.2-57,13.5c-2.9,1.5-0.3,5.9,2.6,4.4c16.9-8.9,35.4-13.2,54.5-12.8
					C858.1,1366.8,858.1,1361.7,854.8,1361.6z"/>
				<path class="st8" d="M837.4,1339.6c-16.1,4.2-32.3,8.5-48.4,12.7c-3.2,0.8-1.8,5.7,1.4,4.9c16.1-4.2,32.3-8.5,48.4-12.7
					C841.9,1343.7,840.6,1338.8,837.4,1339.6z"/>
				<path class="st8" d="M816.9,1317.2c-16.4,4.3-32.2,10.6-47.1,18.8c-2.9,1.6-0.3,6,2.6,4.4c14.5-8,29.8-14.1,45.9-18.3
					C821.5,1321.3,820.1,1316.4,816.9,1317.2z"/>
				<path class="st8" d="M1433.7,1331.3c-12.6-7.8-22.7-18.7-29.4-31.9c-1.5-2.9-5.9-0.3-4.4,2.6c7.1,14,17.9,25.5,31.2,33.7
					C1433.9,1337.4,1436.4,1333,1433.7,1331.3z"/>
				<path class="st8" d="M1463.9,1328.7c-14.2-10.4-25.3-24-32.9-39.9c-1.4-2.9-5.8-0.4-4.4,2.6c7.9,16.6,19.8,30.8,34.7,41.7
					C1463.9,1335,1466.5,1330.6,1463.9,1328.7z"/>
				<path class="st8" d="M1495.2,1314.2c-11.4-8.6-21.6-18.7-30.5-30c-2-2.6-5.6,1.1-3.6,3.6c9.2,11.6,19.7,21.9,31.5,30.8
					C1495.2,1320.5,1497.7,1316.1,1495.2,1314.2z"/>
				<path class="st8" d="M1528.5,1301.4c-10.5-7-18.8-16.5-24.4-27.8c-1.4-2.9-5.8-0.4-4.4,2.6c6,12.1,15,22.2,26.2,29.6
					C1528.7,1307.6,1531.2,1303.2,1528.5,1301.4z"/>
				<path class="st8" d="M1557.5,1277.6c-4.3-7.5-8.6-14.9-12.9-22.4c-1.6-2.8-6-0.3-4.4,2.6c4.3,7.5,8.6,14.9,12.9,22.4
					C1554.8,1283,1559.1,1280.5,1557.5,1277.6z"/>
			</g>
			<g>
				<path class="st16" d="M1129.3,710.3c-25.9,0-49.2,11.3-65.2,29.3c-15.3-7.3-32.5-11.3-50.6-11.3c-65.4,0-118.5,53.1-118.5,118.5
					s53.1,118.5,118.5,118.5c52.3,0,96.6-33.8,112.4-80.8c1.1,0,2.2,0.1,3.4,0.1c48.1,0,87.1-39,87.1-87.1
					C1216.5,749.3,1177.4,710.3,1129.3,710.3z"/>
				<path class="st8" d="M1111,869.3c1.9-0.7,3.7-1.5,5.7-1.9c2.3-0.4,4.6-0.4,6.9-0.4c4.8,0.1,9.7,0.2,14.4-0.9
					c7.2-1.6,13.8-6,18.1-12.1c0.7-0.9,1.4-2,2.4-2.4c0.8-0.3,1.8-0.2,2.6-0.1c4.7,0.5,9.6,0.1,14.2-1c1.4-0.4,3.1-1.3,2.8-2.7
					c-0.2-1-1.4-1.4-2.3-1.7c-6-1.8-12-3.5-18-5.3c8.8-0.8,18.2-1.8,25.4-7c0.7-0.5,1.3-1,1.7-1.8c0.9-1.7-0.2-3.8-1.8-4.9
					c-1.6-1-3.6-1.2-5.5-1.4c-6.1-0.5-12.1-1-18.2-1.5c5.3-0.9,10.5-2,15.7-3.4c1.8-0.5,3.8-1.3,4.1-3c0.2-0.9-0.2-1.8-0.7-2.5
					c-1.8-2.6-5.4-3.1-8.6-3.1c-14.1-0.2-28.2,3.2-40.6,9.9c-8,4.3-15.5,10.1-24.3,12.4c-5,1.3-10.4,1.6-14.7,4.4
					c-4.8,3.1-7.4,9-7.2,14.7c0.3,5.7,3.1,11.1,7.2,15.2c0.7,0.6,1.4,1.4,1.4,2.3c0.1,2.4-2.8,3.8-2,6.2
					C1096.8,876.6,1104.5,871.8,1111,869.3z"/>
				<path class="st8" d="M1030.9,892.2c23.3-0.6,47.4-3.5,67.2-15.6c1-0.6,2.1-1.3,2.4-2.5c0.3-0.8,0.1-1.8-0.1-2.6
					c-2-9.4-4.1-18.7-6.1-28.1c-0.2-1.1-0.5-2.3-1.4-3.1c-1.1-1-2.8-0.9-4.3-0.7c-50.8,5.3-100.7-13.4-151.2-21.5
					c-6.7-1.1-13.6-2-19.4-5.4c-5-2.9-9.3-7.6-14.4-10c-5.5,13.7-8.5,28.6-8.5,44.2c0,9.3,1.1,18.4,3.1,27.1
					C941,887.1,986,893.4,1030.9,892.2z"/>
				<path class="st9" d="M1213,773.1c0.7,4.5,1.1,9.1,1.1,13.8c0,48.1-39,87.1-87.1,87.1c-1.1,0-2.3,0-3.4-0.1
					c-15.7,47-60.1,80.8-112.4,80.8c-54.6,0-100.7-37-114.3-87.3c9.8,55.6,58.3,97.9,116.7,97.9c52.3,0,96.6-33.8,112.4-80.8
					c1.1,0,2.2,0.1,3.4,0.1c48.1,0,87.1-39,87.1-87.1C1216.5,789,1215.2,780.8,1213,773.1z"/>
				<path class="st8" d="M1098.5,828.1c-0.3,3.4-0.9,6.8-1.9,10c39.9-15.7,79.8-31.3,119.6-47c-0.2-2.8-0.5-5.5-1-8.2L1098.5,828.1z
					"/>
				<path class="st17" d="M1625.5,597.7c-17.2-7.8-34.3-11-51.5-22.1c-3.2-2.1-7.1-4.3-11.1,0c-0.8,0.9-1.5,2-2.1,3.1l-17.5,34.7
					c-0.7,1.4-1.5,2.9-3,3.3c-0.9,0.3-1.8,0.1-2.7-0.2c-7.4-2.1-12.4-8.7-17.9-14.1c-5.5-5.3-13.6-9.9-20.6-6.6
					c-9,4.2-10.2,17.8-11.5,26.2c-1.4,8.5-4.1,18.2-4.2,26.9c-0.1,20.7,30.5,27.9,45.5,35.1c2.1,1,4.4,2.1,6.8,1.8
					c1.6-0.2,3.1-0.9,4.5-1.7c4.8-2.5,9.6-5.1,14.4-7.6c-0.7-4.3-4.8-6.9-8.4-9.4c-4-2.8-8.1-7.6-5.1-12.3c1.5-2.2,4.1-3.4,6.7-3.4
					c15.3,0.4,25.8,13.4,39.5,18.9c2,0.8,4.3,1.5,6.4,0.9c2.5-0.6,4.3-2.8,5.9-4.8c10.4-12.8,20.8-33.6,31.2-49.7
					C1635.4,610.1,1632.8,601.1,1625.5,597.7z"/>
				<polygon class="st17" points="1501.2,672.3 1095.7,829.2 1084.3,792.1 1490.9,644 				"/>
				
					<rect x="959.3" y="835.7" transform="matrix(0.9394 -0.3429 0.3429 0.9394 -236.8654 385.1197)" class="st17" width="22.8" height="53.6"/>
				<g>
					<g>
						<polygon class="st18" points="971.3,841.3 971,840.5 1499.6,647.2 1514.6,617.4 1515.3,617.8 1500.1,647.9 						"/>
					</g>
					<g>
						<polygon class="st18" points="971.3,848.6 971,847.9 1507.3,647.2 1533,611.7 1533.6,612.1 1507.8,647.9 1507.7,647.9 						
							"/>
					</g>
					<g>
						<polygon class="st18" points="971.3,855.2 971,854.4 1516.4,647.6 1548.4,605.2 1549.1,605.7 1516.9,648.3 1516.7,648.3 
													"/>
					</g>
					<g>
						<polygon class="st18" points="983.7,866.1 983.4,865.3 1507.6,659.8 1538.9,672.3 1538.6,673.1 1507.6,660.7 						"/>
					</g>
					<g>
						<polygon class="st18" points="978.8,860.5 978.5,859.8 1513.4,654.7 1556.4,664.4 1556.2,665.2 1513.4,655.6 						"/>
					</g>
					<g>
						<polygon class="st18" points="974.5,855.6 974.2,854.9 1519.9,648.4 1572.2,659 1572.1,659.7 1520,649.2 						"/>
					</g>
				</g>
			</g>
			<path class="st12" d="M1003.2,768.5c-7.3-8.2-20.4-16.8-36.2-24c-33.3-15.1-79.1-23.5-110-7.5l97.1-69.6
				c-15.3-131.8,8.6-220.4,8.6-220.4s-309.8,298.2-273,346c28.3,36.8,192.7,78.6,316.2,78.1c37.1-0.1,70.4-4.1,95.3-13.1v-43.7
				C1101.2,814.3,1026,794,1003.2,768.5z"/>
			<path class="st8" d="M857.9,736.5l96.3-69c-1-9-1.9-17.8-2.6-26.3c-67.5,25.5-129.6,65-188.5,107.2
				C794.2,741.4,826,737.4,857.9,736.5z"/>
			<path class="st8" d="M918.5,693l35.6-25.5c-8.4-72.5-5-131.9-0.2-170.7c-15.3,27.4-27.3,56.6-34.3,87.1
				C911.4,619.6,910.3,657.3,918.5,693z"/>
			<path class="st12" d="M1100.2,857.9c10,2.2,20.7,1.1,29.9-3.3s16.9-11.9,21.5-21c0.4-0.9,1.9-1.8,2.8-1.7
				c7.5,0.9,15.6,2.9,22.3-0.5c0.5-0.3,1.1-0.6,1.4-1.2c0.4-0.8,0-1.8-0.7-2.4c-0.7-0.6-1.6-0.8-2.5-1c-3.4-0.8-7-1.2-10.5-1.2
				c-0.2-0.5,0.3-1.1,0.8-1.2c-3.7-1.1-6.6-0.7-10.3-1.8c7.6-2.7,15-6,22.1-9.8c1.6-0.9,3.4-2.6,2.4-4.1c-0.7-1-2.1-1-3.2-0.9
				c-8.2,0.8-16.4,2.2-24.5,4.1c6.1-3,12.3-6.1,18.4-9.1c2.5-1.2,5.4-3.5,4.4-6c-1-2.5-4.5-2.3-7.2-1.7c-7.1,1.8-14.2,3.6-21.3,5.3
				c7.8-2.4,14.9-7,20.4-13c1.1-1.2,2.1-2.4,2.4-4c0.3-1.5-0.3-3.4-1.8-3.9c-0.8-0.3-1.6-0.2-2.4-0.1c-10.9,1.6-21.2,7.1-28.5,15.3
				c-2.3,2.6-4.3,5.4-7,7.7c-9.5,8.2-23.9,7-35.3,12.4c-4,1.9-7.8,4.9-9.4,9c-1.4,3.8-0.7,8,0.6,11.8c2.7,8.1,8.1,15.3,15.2,20.1
				C1100.4,857.1,1101.1,856.8,1100.2,857.9z"/>
			<path class="st12" d="M1546.6,767.4c-5.9-28.8-31.7-49.3-58-62.5c-17.6-8.9-37.6-16.8-47.2-34.1c-0.3,0-0.5,0.1-0.8,0.2
				c-1.4-1.9-3-3.7-4.9-5.1c-5.2-3.9-12.1-4.8-18.4-3.8c-2.3,0.4-4.7,1.1-6.5,2.6c-1.8,1.5-2.9,4.1-2.1,6.3
				c-3.6-3.2-8.9-4.2-13.4-2.7c-4.5,1.6-8,5.8-8.8,10.5c0.8,0.1,1.5,0.2,2.3,0.3c-2.9,0.2-5.7,1.2-7.9,3c-3.6,3-5.6,7.9-4.9,12.5
				c3-1.8,6-3.6,9.1-5.4c0.7-0.4,1.5-0.8,2.2-0.6c1.5,0.4,1.3,2.7,0.1,3.7c-1.2,1-2.8,1.2-4,2.1c-2.6,1.7-2.9,5.9-0.6,8
				c2.7,1.8,6.3-0.9,7.7-3.9c1.4-2.9,2.1-6.5,4.6-8.5c2.5-1.9,6-1.6,9-0.3c0.2,0.8,0.4,1.7,0.7,2.5c2.8,8.6,7.2,16.7,9.1,25.6
				c3.3,15-0.7,30.7,0.5,46.1c2.2,28.1,24.2,53.1,51.1,60.5l-3-0.5c13.2,5.7,28.8,4.2,41.9-1.7c13.2-5.8,24.2-15.6,33.9-26.2
				c2.9-3.2,5.8-6.6,7.5-10.6C1548.1,779.7,1547.8,773.3,1546.6,767.4z"/>
			<path class="st8" d="M912.9,1574.4c0,0-112.6,56.7-109.2,64c3.3,7.3,151.4-22.3,151.4-22.3l-10.9-44.5L912.9,1574.4z"/>
			<path class="st8" d="M1646.2,1228.1c0,0,109.2,62.9,113.5,56.1s-101.9-114.2-101.9-114.2l-31.2,33.6L1646.2,1228.1z"/>
		</g>
		<g>
			<path class="st16" d="M954.5,1562.2c-2.8-46,18.6-92.8,55.3-120.8c-5.5,18.6-7.7,44.7,10.5,51.5c14.5,5.5,30.1-8.5,33.4-23.7
				c3.2-15.2-1.7-30.7-4.5-45.9c-4.1-22.7-3.4-46.4,3.8-68.3c12.5-38,43.3-67,75.8-90.4c50.6-36.5,113.9-64,174.5-48.9
				c-18.3,10.1-39,23.9-39.6,44.8c-0.5,19.4,17.5,34.6,36.1,40c40.1,11.6,84.4-9.9,109.4-43.3s33.8-76.3,36.5-117.9
				c66.3,97.4,58.8,238.8-17.4,328.7c38.4-14.8,74.3-36.1,105.7-62.7c13.2,66.5,6.1,138.6-28.8,196.7
				c-34.9,58.1-99.9,99.7-167.7,97.5c-43.2-1.4-84.6-19.5-127.7-20.2c-34.6-0.6-68.3,10.1-102.6,15.3
				C1024.2,1707.2,959.7,1647.4,954.5,1562.2z"/>
			<path class="st7" d="M1383.9,1621c10.5-33.3,0.9-69.6-12.7-101.8c-13.5-31.9-33.5-64.3-66-76.1c-11.8-4.3-24.8-5.6-35.9-11.6
				s-20.1-19-15.7-30.8c3.3-8.6,12.4-13.3,21.1-16.2c16.8-5.5,35-6.7,52.4-3.5c-6.5-15.4-22.5-25.3-39-28.1s-33.4,0.5-49.4,5.2
				c-38.3,11.1-75.1,31-99.9,62.1s-36,74.7-22.6,112.2c5,13.9,13.1,26.6,16.6,40.9s1,31.7-11.3,39.9c-9.7,6.5-24.1,4.8-32.1-3.8
				c-7.9-8.6-8.5-23.1-1.2-32.3c-26,8.5-46.1,32.6-49.9,59.7c-2.7,19.6,3.3,40.1,15.4,55.7c16.5,4.1,34.5,5,53.4,2.2
				c34.2-5.2,68-15.8,102.6-15.3c36,0.6,70.8,13.3,106.4,18.3C1345.3,1677.9,1373.4,1654.2,1383.9,1621z"/>
		</g>
		<path class="st9" d="M1067.5,1283.9c-3.9-14.5-5.7-29.4-5.5-44.4c0-3.2-5-3.2-5,0c-0.2,15.5,1.7,30.8,5.7,45.8
			C1063.5,1288.3,1068.3,1287,1067.5,1283.9z"/>
		<path class="st9" d="M1093.3,1155.2c-0.2-3.2-5.2-3.2-5,0c0.7,13.1,1.3,26.1,2,39.2c0.2,3.2,5.2,3.2,5,0
			C1094.7,1181.3,1094,1168.3,1093.3,1155.2z"/>
		<path class="st9" d="M1008.1,1266.2c-10.4,29.7-14.6,61.3-12.3,92.7c0.2,3.2,5.2,3.2,5,0c-2.3-31,1.8-62,12.2-91.4
			C1014,1264.5,1009.2,1263.2,1008.1,1266.2z"/>
		<path class="st9" d="M1581,1360.4c-13.7,8.5-27.4,17-41.1,25.5c-2.7,1.7-0.2,6,2.5,4.3c13.7-8.5,27.4-17,41.1-25.5
			C1586.2,1363,1583.7,1358.7,1581,1360.4z"/>
		<path class="st9" d="M1613.2,1388c-12.2,5.1-23.5,11.6-34,19.6c-2.5,1.9,0,6.3,2.5,4.3c10.1-7.7,21.1-14.2,32.8-19.1
			C1617.4,1391.6,1616.1,1386.8,1613.2,1388z"/>
		<path class="st9" d="M1602.7,1468.4c-4.6,2.6-9.1,5.2-13.7,7.8c-2.8,1.6-0.3,5.9,2.5,4.3l13.7-7.8
			C1608,1471.1,1605.5,1466.8,1602.7,1468.4z"/>
		<path class="st19" d="M1797,410.2c-3.2,0-3.2,5,0,5C1800.2,415.2,1800.2,410.2,1797,410.2z"/>
		<path class="st19" d="M1901.9,391.4c-3.2,0-3.2,5,0,5C1905.1,396.4,1905.1,391.4,1901.9,391.4z"/>
		<path class="st19" d="M1864.1,441.7c-3.2,0-3.2,5,0,5C1867.3,446.7,1867.3,441.7,1864.1,441.7z"/>
		<path class="st19" d="M1899.8,517.3c-3.2,0-3.2,5,0,5C1903,522.3,1903,517.3,1899.8,517.3z"/>
		<path class="st19" d="M1719.3,366.2c-3.2,0-3.2,5,0,5C1722.5,371.2,1722.6,366.2,1719.3,366.2z"/>
		<path class="st19" d="M1544.8,396.3c-0.7-0.7-1.4-1.4-2.1-2.1c-0.9-0.9-2.6-1-3.5,0c-0.9,1-1,2.5,0,3.5l2.1,2.1
			c0.9,0.9,2.6,1,3.5,0C1545.8,398.8,1545.8,397.3,1544.8,396.3z"/>
		<path class="st19" d="M1728.4,462.9c-1.2-0.4-2.8,0.5-3.1,1.7c-0.3,1.4,0.4,2.6,1.7,3.1c0,0,0,0,0,0c0,0,0.1,0,0.1,0
			c0,0,0.1,0.1,0.1,0.1c0,0.1,0.1,0.2,0.2,0.2c0,0,0,0,0,0.1c0,0,0,0.1,0,0.1c0,0,0,0.1,0,0.1c0,0.1-0.1,0.3-0.1,0.3
			c-0.4,1.2,0.5,2.8,1.7,3.1c1.4,0.3,2.7-0.4,3.1-1.7C1733.1,467,1731.3,463.9,1728.4,462.9z"/>
		<path class="st19" d="M1389.9,804.7c-3.2,0-3.2,5,0,5C1393.1,809.7,1393.1,804.7,1389.9,804.7z"/>
		<path class="st19" d="M1329.1,882.3c-3.2,0-3.2,5,0,5C1332.3,887.3,1332.3,882.3,1329.1,882.3z"/>
		<path class="st19" d="M1354.2,953.7c-3.2,0-3.2,5,0,5C1357.5,958.7,1357.5,953.7,1354.2,953.7z"/>
		<path class="st19" d="M1379.4,901.2c-3.2,0-3.2,5,0,5C1382.6,906.2,1382.6,901.2,1379.4,901.2z"/>
		<path class="st19" d="M1797,934.8h-2.1c-1.3,0-2.6,1.1-2.5,2.5c0.1,1.4,1.1,2.5,2.5,2.5h2.1c1.3,0,2.6-1.1,2.5-2.5
			C1799.4,935.9,1798.4,934.8,1797,934.8z"/>
		<path class="st19" d="M1822.1,884.4c-3.2,0-3.2,5,0,5C1825.4,889.4,1825.4,884.4,1822.1,884.4z"/>
		<path class="st19" d="M1874.6,932.7c-3.2,0-3.2,5,0,5C1877.8,937.7,1877.8,932.7,1874.6,932.7z"/>
		<path class="st19" d="M1041.3,1111.8c-0.7-0.7-1.4-1.4-2.1-2.1c-0.9-0.9-2.6-1-3.5,0c-0.9,1-1,2.5,0,3.5c0.7,0.7,1.4,1.4,2.1,2.1
			c0.9,0.9,2.6,1,3.5,0C1042.2,1114.3,1042.3,1112.8,1041.3,1111.8z"/>
		<path class="st19" d="M1098.3,1100.6c-3.2,0-3.2,5,0,5C1101.5,1105.6,1101.5,1100.6,1098.3,1100.6z"/>
		<path class="st19" d="M1100.4,1150.9c-3.2,0-3.2,5,0,5C1103.6,1155.9,1103.6,1150.9,1100.4,1150.9z"/>
		<path class="st19" d="M919.9,957.9c-3.2,0-3.2,5,0,5C923.1,962.9,923.1,957.9,919.9,957.9z"/>
		<path class="st19" d="M869.6,901.2c-3.2,0-3.2,5,0,5C872.8,906.2,872.8,901.2,869.6,901.2z"/>
		<path class="st19" d="M1240.9,351.5c-3.2,0-3.2,5,0,5C1244.2,356.5,1244.2,351.5,1240.9,351.5z"/>
		<path class="st19" d="M1299.7,288.6c-3.2,0-3.2,5,0,5C1302.9,293.6,1302.9,288.6,1299.7,288.6z"/>
		<path class="st19" d="M1224.2,296.9c-3.2,0-3.2,5,0,5C1227.4,301.9,1227.4,296.9,1224.2,296.9z"/>
		<path class="st19" d="M1276.6,330.5c-3.2,0-3.2,5,0,5C1279.8,335.5,1279.8,330.5,1276.6,330.5z"/>
		<path class="st19" d="M384.9,420.7c-3.2,0-3.2,5,0,5C388.1,425.7,388.1,420.7,384.9,420.7z"/>
		<path class="st19" d="M424.7,370.4c-3.2,0-3.2,5,0,5C428,375.4,428,370.4,424.7,370.4z"/>
		<path class="st19" d="M458,398.4l-2.1-2.1c-0.9-0.9-2.6-1-3.5,0c-0.9,1-1,2.5,0,3.5c0.7,0.7,1.4,1.4,2.1,2.1c0.9,0.9,2.6,1,3.5,0
			C458.9,400.9,459,399.4,458,398.4z"/>
		<path class="st19" d="M317.7,420.7c-3.2,0-3.2,5,0,5C321,425.7,321,420.7,317.7,420.7z"/>
		<path class="st19" d="M389.1,362H387c-1.3,0-2.6,1.1-2.5,2.5c0.1,1.4,1.1,2.5,2.5,2.5h2.1c1.3,0,2.6-1.1,2.5-2.5
			C391.5,363.1,390.5,362,389.1,362z"/>
		<path class="st19" d="M439.4,404c-3.2,0-3.2,5,0,5C442.6,409,442.7,404,439.4,404z"/>
		<path class="st19" d="M431,769c-3.2,0-3.2,5,0,5C434.3,774,434.3,769,431,769z"/>
		<path class="st19" d="M414.3,819.4c-3.2,0-3.2,5,0,5C417.5,824.4,417.5,819.4,414.3,819.4z"/>
		<path class="st19" d="M458.3,855.1c-3.2,0-3.2,5,0,5C461.5,860.1,461.5,855.1,458.3,855.1z"/>
		<path class="st19" d="M466.6,1082.5c-0.7-1.4-1.9-2.4-3.4-2.9c-1.3-0.4-2.8,0.4-3.1,1.7c-0.3,1.3,0.4,2.7,1.7,3.1c0,0,0,0,0,0
			c0.1,0,0.1,0.1,0.1,0.1c0,0,0,0,0,0.1c0,0.1,0.1,0.1,0.1,0.2c0,0,0,0,0,0.1c0,0,0,0,0,0.1c0,0,0,0.1,0,0.1c0,0.1,0,0.2,0,0.1
			c0,0,0,0.1,0,0.1c-0.4,1.2-0.2,2.5,1,3.2c1.1,0.6,2.9,0.3,3.4-0.9C467.3,1085.8,467.4,1084.2,466.6,1082.5z"/>
		<path class="st19" d="M424.4,1149.5c-0.7-0.7-1.4-1.4-2.1-2.1c-0.9-0.9-2.6-1-3.5,0c-0.9,1-1,2.5,0,3.5l2.1,2.1
			c0.9,0.9,2.6,1,3.5,0C425.3,1152.1,425.4,1150.5,424.4,1149.5z"/>
		<path class="st19" d="M466.7,1201.3c-3.2,0-3.2,5,0,5C469.9,1206.3,469.9,1201.3,466.7,1201.3z"/>
		<path class="st19" d="M468.8,1144.6c-3.2,0-3.2,5,0,5C472,1149.6,472,1144.6,468.8,1144.6z"/>
		<path class="st19" d="M1347.9,932.7c-1.4,0.1-2.5,1.1-2.5,2.5v2.1c0,1.3,1.1,2.6,2.5,2.5c1.4-0.1,2.5-1.1,2.5-2.5v-2.1
			C1350.4,933.9,1349.3,932.6,1347.9,932.7z"/>
		<path class="st19" d="M1377.3,869.8c-3.2,0-3.2,5,0,5C1380.5,874.8,1380.5,869.8,1377.3,869.8z"/>
		<path class="st19" d="M1475.9,437.5c-3.2,0-3.2,5,0,5C1479.2,442.5,1479.2,437.5,1475.9,437.5z"/>
		<path class="st19" d="M1557.8,437.5c-3.2,0-3.2,5,0,5C1561,442.5,1561,437.5,1557.8,437.5z"/>
		<path class="st19" d="M1475.9,374.6c-3.2,0-3.2,5,0,5C1479.2,379.6,1479.2,374.6,1475.9,374.6z"/>
		<ellipse class="st20" cx="1784.4" cy="1674.3" rx="59.6" ry="10.4"/>
		<ellipse class="st20" cx="1925.9" cy="1666.2" rx="46.5" ry="8.1"/>
		<ellipse class="st20" cx="475.6" cy="1714.9" rx="59.6" ry="10.4"/>
	</g>
</g>
</svg>
